<svg xmlns="http://www.w3.org/2000/svg" width="64.862" height="17.707" viewBox="0 0 64.862 17.707">
  <g id="close-btn" transform="translate(-1128.602 -173.879)">
    <g id="Group_565" data-name="Group 565" transform="translate(-67.621 25.5)">
      <line id="Line_1" data-name="Line 1" x1="13.464" y2="13.464" transform="translate(1245.5 150.5)" fill="none" stroke="#234b6f" stroke-linecap="round" stroke-width="3"/>
      <line id="Line_2" data-name="Line 2" x2="13.464" y2="13.464" transform="translate(1245.5 150.5)" fill="none" stroke="#234b6f" stroke-linecap="round" stroke-width="3"/>
    </g>
    <path id="Path_478" data-name="Path 478" d="M8.12,6.014a2.473,2.473,0,0,0-.987-1.6A3.09,3.09,0,0,0,5.32,3.886a3.247,3.247,0,0,0-1.533.336,3.026,3.026,0,0,0-1.05.9A3.9,3.9,0,0,0,2.128,6.42a5.791,5.791,0,0,0-.2,1.512,6.477,6.477,0,0,0,.2,1.617,3.868,3.868,0,0,0,.609,1.33,3.008,3.008,0,0,0,1.057.9,3.29,3.29,0,0,0,1.54.336A2.967,2.967,0,0,0,6.5,11.9a2.646,2.646,0,0,0,.882-.6,2.771,2.771,0,0,0,.581-.917,3.814,3.814,0,0,0,.252-1.148h1.33a4.541,4.541,0,0,1-1.3,2.94,4.213,4.213,0,0,1-3.024,1.05,4.819,4.819,0,0,1-2.03-.4,3.987,3.987,0,0,1-1.442-1.1,4.721,4.721,0,0,1-.861-1.652A7.048,7.048,0,0,1,.6,8.03,6.669,6.669,0,0,1,.91,5.979a4.942,4.942,0,0,1,.9-1.673A4.21,4.21,0,0,1,3.3,3.179a4.784,4.784,0,0,1,2.037-.413,5.138,5.138,0,0,1,1.484.21,3.989,3.989,0,0,1,1.246.616,3.462,3.462,0,0,1,.91,1.015A3.72,3.72,0,0,1,9.45,6.014ZM11.074,3h1.19V13h-1.19ZM14.98,9.388a3.6,3.6,0,0,0,.175,1.169,2.446,2.446,0,0,0,.483.854,2.1,2.1,0,0,0,.721.525,2.194,2.194,0,0,0,1.75,0,2.1,2.1,0,0,0,.721-.525,2.446,2.446,0,0,0,.483-.854,3.6,3.6,0,0,0,.175-1.169,3.6,3.6,0,0,0-.175-1.169,2.523,2.523,0,0,0-.483-.861,2.057,2.057,0,0,0-.721-.532,2.194,2.194,0,0,0-1.75,0,2.057,2.057,0,0,0-.721.532,2.523,2.523,0,0,0-.483.861A3.6,3.6,0,0,0,14.98,9.388Zm-1.26,0A4.821,4.821,0,0,1,13.944,7.9a3.378,3.378,0,0,1,.672-1.2,3.166,3.166,0,0,1,1.106-.805,4.053,4.053,0,0,1,3.031,0,3.181,3.181,0,0,1,1.1.805,3.378,3.378,0,0,1,.672,1.2,4.821,4.821,0,0,1,.224,1.491,4.753,4.753,0,0,1-.224,1.484,3.387,3.387,0,0,1-.672,1.2,3.106,3.106,0,0,1-1.1.8,4.145,4.145,0,0,1-3.031,0,3.091,3.091,0,0,1-1.106-.8,3.387,3.387,0,0,1-.672-1.2A4.755,4.755,0,0,1,13.72,9.388Zm9.156,1.33a1.34,1.34,0,0,0,.182.665,1.266,1.266,0,0,0,.441.434,1.984,1.984,0,0,0,.616.231,3.527,3.527,0,0,0,.707.07,4.357,4.357,0,0,0,.588-.042,2.156,2.156,0,0,0,.567-.154,1.065,1.065,0,0,0,.427-.329.877.877,0,0,0,.168-.553.792.792,0,0,0-.35-.7,2.979,2.979,0,0,0-.875-.385q-.525-.147-1.141-.266a5.92,5.92,0,0,1-1.141-.336,2.362,2.362,0,0,1-.875-.609,1.583,1.583,0,0,1-.35-1.092,1.734,1.734,0,0,1,.245-.938,2,2,0,0,1,.63-.637,2.892,2.892,0,0,1,.868-.364,4,4,0,0,1,.959-.119,5.715,5.715,0,0,1,1.134.105,2.623,2.623,0,0,1,.917.364,1.884,1.884,0,0,1,.637.7,2.658,2.658,0,0,1,.28,1.1H26.32a1.2,1.2,0,0,0-.182-.581,1.192,1.192,0,0,0-.392-.371,1.782,1.782,0,0,0-.525-.2,2.7,2.7,0,0,0-.581-.063,3.541,3.541,0,0,0-.539.042,1.815,1.815,0,0,0-.5.147,1,1,0,0,0-.364.28.706.706,0,0,0-.14.455.67.67,0,0,0,.217.511,1.732,1.732,0,0,0,.553.336,4.85,4.85,0,0,0,.756.224q.42.091.84.189a8.936,8.936,0,0,1,.875.238,2.853,2.853,0,0,1,.756.371,1.812,1.812,0,0,1,.532.581,1.707,1.707,0,0,1,.2.868,2.016,2.016,0,0,1-.273,1.092,2.134,2.134,0,0,1-.714.7,2.984,2.984,0,0,1-.994.371,5.88,5.88,0,0,1-1.1.105,5.092,5.092,0,0,1-1.148-.126,2.816,2.816,0,0,1-.966-.413,2.106,2.106,0,0,1-.672-.756,2.619,2.619,0,0,1-.28-1.141Zm11.3-2.03a2.435,2.435,0,0,0-.189-.8,2.04,2.04,0,0,0-.434-.651,2.061,2.061,0,0,0-.644-.434,2.037,2.037,0,0,0-.819-.161,2.072,2.072,0,0,0-.833.161,1.924,1.924,0,0,0-.637.441,2.11,2.11,0,0,0-.42.651,2.479,2.479,0,0,0-.182.791ZM35.322,10.7a2.892,2.892,0,0,1-1.05,1.834,3.285,3.285,0,0,1-2.044.616,3.718,3.718,0,0,1-1.5-.28,2.967,2.967,0,0,1-1.071-.784,3.33,3.33,0,0,1-.651-1.2,5.8,5.8,0,0,1-.245-1.526,4.355,4.355,0,0,1,.252-1.512,3.614,3.614,0,0,1,.707-1.19,3.208,3.208,0,0,1,1.078-.784,3.292,3.292,0,0,1,1.365-.28,2.969,2.969,0,0,1,1.6.4,3.17,3.17,0,0,1,1.022,1.015,4.012,4.012,0,0,1,.532,1.344,5.763,5.763,0,0,1,.119,1.386H30.016a2.873,2.873,0,0,0,.112.9,2.045,2.045,0,0,0,.406.756,2,2,0,0,0,.714.525,2.465,2.465,0,0,0,1.022.2,2.06,2.06,0,0,0,1.239-.35,1.692,1.692,0,0,0,.637-1.064Z" transform="translate(1128 175)" fill="#234b6f"/>
  </g>
</svg>
