<svg id="Component_7_36" data-name="Component 7 – 36" xmlns="http://www.w3.org/2000/svg" xmlns:xlink="http://www.w3.org/1999/xlink" width="182.444" height="30.31" viewBox="0 0 182.444 30.31">
  <defs>
    <linearGradient id="linear-gradient" y1="0.5" x2="1" y2="0.5" gradientUnits="objectBoundingBox">
      <stop offset="0.3" stop-color="#e74a21"/>
      <stop offset="0.7" stop-color="#ec9a1e"/>
    </linearGradient>
  </defs>
  <path id="Path_82" data-name="Path 82" d="M74.97,53.785l-.075.191a7.7,7.7,0,0,1,4.011,7.152,8.569,8.569,0,0,1-8.86,8.339c-6.74,0-9.062-4-9.062-7.678,0-4.711,3.243-7.851,3.243-12.142a6.683,6.683,0,0,0-5.2-6.473l-.113.192a5.607,5.607,0,0,1,1.659,4.022c0,4.634-3.845,7.928-3.845,13.252,0,4.9,3.375,9.895,13.134,9.895,8.7,0,13.287-4.327,13.287-8.937C83.144,57.655,80.354,54.312,74.97,53.785Z" transform="translate(-56.723 -40.227)" fill="url(#linear-gradient)"/>
  <path id="Path_83" data-name="Path 83" d="M119.74,68,108.174,52.845V66.5l2.361.574v.643h-5.381v-.643l1.926-.574V51.625a4.106,4.106,0,0,0-1.664-.955c-.233-.051-.553-.1-.553-.1v-.642h4.564l9.9,13.051V51.144l-2.358-.577v-.643h5.379v.643l-1.926.577V64.69c0,1.237.087,3.079.1,3.31Zm24.184-9.647c0,6.3-4.3,9.916-9.047,9.916a9.043,9.043,0,0,1-9.047-9.433,9.06,9.06,0,0,1,9.021-9.461A8.869,8.869,0,0,1,143.924,58.352Zm-3.007.938c0-4.61-2.716-9.085-6.409-9.085-3.93,0-5.7,3.86-5.7,7.987,0,4.1,2.242,9.245,6.462,9.245C139.229,67.437,140.917,63.364,140.917,59.29Zm6.746-8.148-1.843-.575v-.643h7.1v.643l-2.222.575,4.9,13.565h.026l4.9-13.565-2.222-.575v-.643h5.25v.643l-1.826.575-6.21,16.9H153.94Zm41.925,7.49h-1.125V50.861c3.734,0,5.908.863,5.908,3.939C194.372,57.085,192.429,58.632,189.588,58.632Zm31.748,8.443,2.453-.574V51.142l-2.453-.575v-.643h7.7v.642l-2.454.575V66.5l2.455.574v.643h-7.7Zm12.417-4.256h.485l1.638,3.827a7.24,7.24,0,0,0,3.132.791c2.122,0,4.064-1.286,4.064-3.5,0-1.706-1.084-2.725-2.849-3.657l-1.74-.919c-2.084-1.1-4.161-2.655-4.161-5.159,0-2.72,1.882-4.826,5.82-4.826a13.458,13.458,0,0,1,4.1.687l.413,4.117h-.527l-1.515-3.3a5.2,5.2,0,0,0-2.536-.673A3.067,3.067,0,0,0,236.7,53.2c0,1.577,1.032,2.567,2.8,3.5.653.343,1.379.729,2.065,1.09,2.815,1.481,4.151,2.852,4.151,5.4,0,3.14-2.895,5.088-6.493,5.088a15.266,15.266,0,0,1-5-.757Zm-71.388,4.256,1.984-.573,6.119-16.58,2.046-.533L178.834,66.5l1.983.575v.644h-7.5v-.644l2.536-.575-1.79-4.919h-6.73l-1.781,4.92,2.539.573v.644h-5.725Zm5.422-6.807h5.825l-2.892-7.932h-.027Zm25.326-1.25c.6-.157,4.081-1.056,4.081-4.42,0-2.68-2.021-4.756-6.995-4.756-3.075,0-6.186.072-6.563.08v.642l2.031.579V66.5l-2.031.575v.642h7.188v-.642l-2.361-.575V59.558h2.031l5.2,8.159h4.6V67.1l-2.328-.6Zm15.176-8.156V66.5l-2.453.574v.643h7.7v-.643l-2.453-.574V50.862h4.154l1.366,2.97h.529l-.4-3.907h-14.1l-.395,3.907h.528l1.361-2.97ZM76.517,62.184l2.451-23.709H73.841l2.45,23.709Z" transform="translate(-63.27 -38.475)" fill="#0460a9"/>
</svg>
