<svg xmlns="http://www.w3.org/2000/svg" xmlns:xlink="http://www.w3.org/1999/xlink" width="224.556" height="135.917" viewBox="0 0 224.556 135.917">
  <defs>
    <clipPath id="clip-path">
      <path id="Path_314" data-name="Path 314" d="M9.168,71.29H150.845V-64.627H9.168Z" transform="translate(-9.168 64.627)" fill="none"/>
    </clipPath>
    <clipPath id="clip-path-2">
      <path id="Path_316" data-name="Path 316" d="M9.169-21.413,68.994,61.464V18.9L38.842-22.851,68.994-64.627h0Z" transform="translate(-9.169 64.627)" fill="none"/>
    </clipPath>
    <linearGradient id="linear-gradient" x1="0.104" y1="0.508" x2="0.61" y2="0.508" gradientUnits="objectBoundingBox">
      <stop offset="0" stop-color="#ffe13b"/>
      <stop offset="0.1" stop-color="#ffe13a"/>
      <stop offset="0.2" stop-color="#ffdf3a"/>
      <stop offset="0.3" stop-color="#ffdc39"/>
      <stop offset="0.4" stop-color="#ffd737"/>
      <stop offset="0.5" stop-color="#ffd236"/>
      <stop offset="0.6" stop-color="#ffcb34"/>
      <stop offset="0.7" stop-color="#ffc332"/>
      <stop offset="0.8" stop-color="#fdbb2f"/>
      <stop offset="0.9" stop-color="#f9b12d"/>
      <stop offset="1" stop-color="#f4a72a"/>
    </linearGradient>
    <clipPath id="clip-path-3">
      <path id="Path_318" data-name="Path 318" d="M37.619-40.315l14.8,20.5L62.694-34.033,43.232-48.09Z" transform="translate(-37.619 48.09)" fill="none"/>
    </clipPath>
    <linearGradient id="linear-gradient-2" x1="0.104" y1="0.426" x2="0.61" y2="0.426" xlink:href="#linear-gradient"/>
    <clipPath id="clip-path-4">
      <path id="Path_320" data-name="Path 320" d="M37.616,28.392h0L97.47-14.816,83.148-34.646Z" transform="translate(-37.616 34.646)" fill="none"/>
    </clipPath>
    <linearGradient id="linear-gradient-3" x1="0.104" y1="0.574" x2="0.61" y2="0.574" xlink:href="#linear-gradient"/>
    <clipPath id="clip-path-5">
      <path id="Path_322" data-name="Path 322" d="M9.168-14.814,68.995,28.394,23.486-34.648Z" transform="translate(-9.168 34.648)" fill="none"/>
    </clipPath>
    <linearGradient id="linear-gradient-4" x1="0.146" y1="0.279" x2="0.882" y2="0.279" gradientUnits="objectBoundingBox">
      <stop offset="0" stop-color="#829cb4"/>
      <stop offset="0.1" stop-color="#6f8ca7"/>
      <stop offset="0.2" stop-color="#5f7e9b"/>
      <stop offset="0.3" stop-color="#517290"/>
      <stop offset="0.4" stop-color="#466887"/>
      <stop offset="0.5" stop-color="#3d607f"/>
      <stop offset="0.6" stop-color="#365978"/>
      <stop offset="0.7" stop-color="#315473"/>
      <stop offset="0.8" stop-color="#2d506f"/>
      <stop offset="0.9" stop-color="#2b4e6d"/>
      <stop offset="1" stop-color="#2a4d6c"/>
    </linearGradient>
    <clipPath id="clip-path-6">
      <path id="Path_324" data-name="Path 324" d="M23.278-22.851,38.641-1.578l20.411-28.27L78.514-15.8,53.43,18.927V61.464l59.856-82.877L53.43-64.627Z" transform="translate(-23.278 64.627)" fill="none"/>
    </clipPath>
    <linearGradient id="linear-gradient-5" x1="0.146" y1="0.492" x2="0.882" y2="0.492" xlink:href="#linear-gradient-4"/>
  </defs>
  <g id="Group_667" data-name="Group 667" transform="translate(-571 -1052.28)">
    <g id="Group_666" data-name="Group 666">
      <g id="Group_205" data-name="Group 205" transform="translate(624.125 1052.28)">
        <g id="Group_192" data-name="Group 192" transform="translate(0 0)" clip-path="url(#clip-path)">
          <g id="Group_189" data-name="Group 189" transform="translate(150.684 31.266)">
            <path id="Path_311" data-name="Path 311" d="M1.044,2.823H3.958A1.812,1.812,0,0,0,5.948.945c0-1.5-.909-1.88-1.958-1.88H1.044ZM-.946-2.559H4.07c3.247,0,3.868,2.1,3.868,3.518s-.62,3.5-3.868,3.487H1.044V8.808H-.946Z" transform="translate(0.946 2.559)" fill="#2a4d6c"/>
          </g>
          <g id="Group_190" data-name="Group 190" transform="translate(161.051 34.18)">
            <path id="Path_312" data-name="Path 312" d="M0,.117H1.7V1.709h.032a2.661,2.661,0,0,1,2.4-1.815,4.2,4.2,0,0,1,.686.048v1.75a6.54,6.54,0,0,0-.78-.08c-1.243,0-2.229,1.005-2.229,2.82V8.348H0Z" transform="translate(0 0.106)" fill="#2a4d6c"/>
          </g>
          <g id="Group_191" data-name="Group 191" transform="translate(170.093 31.25)">
            <path id="Path_313" data-name="Path 313" d="M144.522,30.327c-8.063,0-14.678-2.736-14.678-17.874,0-15.168,6.417-17.7,14.5-17.7,8.137,0,14.65,2.724,14.65,17.883s-6.313,17.7-14.471,17.7m0-41.986c-13.891,0-21.954,6.995-21.954,24.291s7.855,24.1,21.775,24.1c13.967,0,21.939-7.008,21.939-24.282,0-17.3-7.765-24.112-21.761-24.112M110.666,36.067a70.889,70.889,0,0,0,10.2-.778l-.58-6.614a58.14,58.14,0,0,1-8.448.675c-2.431,0-3.706-1.277-3.706-6.808V-3.2h12.251V-9.613H108.132v-17.88l-6.995,1.937V-9.613H93.076V-3.2h8.061V23.526c0,8.248,3.205,12.541,9.529,12.541m-166.62-.5h7.1V1.938c0-8.82-4.471-12.616-12.837-12.616-7.758,0-16.793,4.271-19.227,5.63l-1.466-4.564h-5.148V35.564h7.1V.882c3.287-1.943,11.46-5.05,16.9-5.05,6.12,0,7.58,2.322,7.58,7.964Zm127.7-5.333A66.214,66.214,0,0,1,56.2,27.888l-.227,6.133a52.711,52.711,0,0,0,15.773,2.509c12.919,0,19.632-2.219,19.632-14.471,0-8.839-3.887-11.645-16.021-13.113C64.857,7.671,63.01,7,63.01,1.847c0-4.946,2.425-6.7,10.682-6.7A97.333,97.333,0,0,1,88.176-3.493l.048-6.12a62.5,62.5,0,0,0-14.341-1.55c-12.051,0-18.059,3.59-18.059,13.2,0,10.412,4.175,11.66,18.459,13.615,7.582,1.054,9.813,2.13,9.813,6.6,0,6.326-2.343,7.979-12.347,7.979M-93.8,28.281h-29.079V6.878h26.9V-.414h-26.9V-20.2h28.983v-7.289h-37.122V35.564H-93.8ZM32.345-5.354c8.154,0,11.647,2.827,11.647,13.128h-23.5C21.453-2.8,26.227-5.354,32.345-5.354m1.537,42.089a55.877,55.877,0,0,0,14.354-1.861l-.061-6.112a64.161,64.161,0,0,1-14.084,1.565c-8.448,0-13.693-2.736-13.885-16.917H51.393V9.723c0-15.925-6.118-21.382-18.77-21.382-11.35,0-19.618,6.408-19.618,24.291,0,17.3,6.8,24.1,20.877,24.1M-5.5,2.344a47.932,47.932,0,0,1,16.73-6.3l.055-6.724A46.674,46.674,0,0,0-5.973-4.264L-7.435-9.613h-5.153V35.564H-5.5ZM-37.181,23.526c0,8.248,3.211,12.541,9.529,12.541a71.119,71.119,0,0,0,10.2-.778l-.585-6.614a58.14,58.14,0,0,1-8.448.675c-2.433,0-3.687-1.277-3.687-6.808V-3.2h12.238V-9.613H-30.174v-17.88l-7.008,1.937V-9.613h-8.07V-3.2h8.07Zm46.026,65.7h3.708l7.483-43.99.078-.452H16.4Zm50.4-1.788h4.093V45.989H59.242Zm-8.082-5.182a7.629,7.629,0,0,1-4.259,1.6c-1.586,0-2.3-.7-2.3-2.309v-5c0-1.859.543-2.616,2.376-3.361l4.183-1.565ZM48.287,55.548h-.463c-4.568,0-6.974,2.385-6.974,6.877v4.2h3.983V62.286c0-1.914.972-2.858,2.991-2.858h.393c1.977,0,2.942.944,2.942,2.858V67.7l-5.836,2.137c-3.6,1.378-4.818,3.052-4.818,6.663v5.693c0,3.651,1.861,5.582,5.369,5.582h.109a8.155,8.155,0,0,0,5.176-1.985v1.653H55.2V62.425c0-4.492-2.391-6.877-6.911-6.877m-18.221,24.3-4.03-23.952H21.874l6.051,31.6H32.16l6-31.6H34.091Zm106.719,2.41a7.624,7.624,0,0,1-4.261,1.6c-1.59,0-2.3-.7-2.3-2.309v-5c0-1.859.524-2.616,2.376-3.361l4.185-1.565ZM133.9,55.548h-.469c-4.555,0-6.959,2.385-6.959,6.877v4.2h3.983V62.286c0-1.914.978-2.858,2.976-2.858h.408c1.977,0,2.942.944,2.942,2.858V67.7l-5.832,2.137c-3.611,1.378-4.829,3.052-4.829,6.663v5.693c0,3.651,1.859,5.582,5.367,5.582h.124a8.109,8.109,0,0,0,5.169-1.985v1.653h4.044V62.425c0-4.492-2.391-6.877-6.926-6.877m20.329,0h-.172a8.285,8.285,0,0,0-5.279,2.04v-1.7h-4.046V87.437h4.046V61.184a7.31,7.31,0,0,1,4.486-1.756c1.689,0,2.473.757,2.473,2.41v25.6h4.038V61.2c0-3.63-1.964-5.649-5.546-5.649m-33.565-4.8h-4.1v5.148h-2.233V59.7h2.233V87.437h4.1V59.7h3.548V55.893h-3.548ZM95.785,82.255a7.7,7.7,0,0,1-4.267,1.6c-1.577,0-2.3-.7-2.3-2.309v-5c0-1.859.53-2.616,2.385-3.361l4.183-1.565ZM92.9,55.548h-.469c-4.562,0-6.974,2.385-6.974,6.877v4.2h3.983V62.286c0-1.914.978-2.858,2.991-2.858h.406c1.979,0,2.944.944,2.944,2.858V67.7l-5.83,2.137c-3.611,1.378-4.839,3.052-4.839,6.663v5.693c0,3.651,1.855,5.582,5.369,5.582h.13a8.184,8.184,0,0,0,5.169-1.985v1.653h4.038V62.425c0-4.492-2.406-6.877-6.919-6.877M78.211,71.312,73,68.088a3.227,3.227,0,0,1-1.762-3.169V62.134c0-1.859.93-2.755,2.858-2.755h.82c1.958,0,2.881.875,2.881,2.755v5.079h3.975V62.355c0-4.465-2.362-6.808-6.8-6.808h-.812c-4.513,0-6.9,2.385-6.9,6.877v2.906c0,2.963.936,4.637,3.611,6.341l5.23,3.279a3.192,3.192,0,0,1,1.75,3.1V81.2c0,1.861-.869,2.709-2.827,2.709h-.97c-1.958,0-2.867-.869-2.867-2.709V75.876H67.2v5.1c0,4.452,2.355,6.8,6.85,6.8h.921c4.528,0,6.919-2.364,6.919-6.864V77.638c0-2.934-.993-4.658-3.68-6.326m29.57-13.195V55.893h-4.059V87.437h4.059V62.113a7.308,7.308,0,0,1,4.907-2.017l.351-.015V55.6h-.393a5.813,5.813,0,0,0-4.864,2.515M-6.663,87.437h4.086V55.89H-6.663Zm-39.181-6.063c0,1.71-.835,2.482-2.7,2.482h-.124a6.7,6.7,0,0,1-4.244-1.931V61.335a6.557,6.557,0,0,1,4.244-1.859h.124c1.868,0,2.7.778,2.7,2.48Zm-1.737-25.826h-.1a8.016,8.016,0,0,0-5.23,2.019V45.991h-4.038V87.437h4.038V85.8a8.148,8.148,0,0,0,5.23,1.971h.1c3.687,0,5.775-2.206,5.775-6.051V61.611c0-3.857-2.088-6.063-5.775-6.063M-65.022,82.131c-1.811,1.241-3.012,1.725-4.374,1.725h-.111c-1.7,0-2.425-.7-2.425-2.358V55.893h-4.093V82.118c0,3.651,1.971,5.651,5.54,5.651h.179a8.235,8.235,0,0,0,5.285-2.04v1.708h4.086V55.893h-4.086ZM1.695,87.437H5.787V45.989H1.695Zm-85.4-6.629c0,2.095-.938,3.047-3.054,3.047h-.854c-2.107,0-3.045-.953-3.045-3.047V62.528c0-2.116.957-3.1,3.045-3.1h.805c2.082,0,3.045.984,3.045,3.1v5.258h4.053V62.528c0-4.637-2.355-6.98-6.98-6.98h-.972c-4.713,0-7.09,2.4-7.09,7.1V80.684c0,4.631,2.446,7.085,7.09,7.085h.972c4.583,0,7.029-2.454,7.029-7.085V74.566H-83.7Zm-36.293-9.5-5.211-3.224a3.24,3.24,0,0,1-1.762-3.169V62.134c0-1.859.936-2.755,2.873-2.755h.8c1.971,0,2.881.875,2.881,2.755v5.079h3.99V62.355c0-4.465-2.351-6.808-6.816-6.808h-.793c-4.513,0-6.917,2.385-6.917,6.877v2.906c0,2.963.957,4.637,3.617,6.341l5.224,3.279a3.183,3.183,0,0,1,1.756,3.1V81.2c0,1.861-.881,2.709-2.818,2.709h-.972c-1.964,0-2.879-.869-2.879-2.709V75.876h-3.992v5.1c0,4.452,2.385,6.8,6.871,6.8h.9c4.534,0,6.925-2.364,6.925-6.864V77.638c0-2.934-.993-4.658-3.678-6.326m82.115,16.124h4.093V55.89h-4.093Zm-64.552-5.182a7.643,7.643,0,0,1-4.244,1.6c-1.6,0-2.309-.7-2.309-2.309v-5c0-1.859.545-2.616,2.385-3.361l4.168-1.565Zm-2.879-26.707h-.442c-4.574,0-6.98,2.385-6.98,6.877v4.2h3.977V62.286c0-1.914.984-2.858,3-2.858h.387c1.971,0,2.934.944,2.934,2.858V67.7l-5.821,2.137c-3.6,1.378-4.831,3.052-4.831,6.663v5.693c0,3.651,1.861,5.582,5.373,5.582h.118a8.113,8.113,0,0,0,5.161-1.985v1.653h4.038V62.425c0-4.492-2.391-6.877-6.917-6.877m90.772,2.57V55.893h-4.046V87.437h4.046V62.113A7.315,7.315,0,0,1-9.62,60.1l.353-.015V55.6h-.4a5.825,5.825,0,0,0-4.873,2.515M-6.718,53h4.2V47.871h-4.2Zm-31.216,0h4.2V47.871h-4.2Zm13.43-2.255H-28.6v5.148h-2.246V59.7H-28.6V87.437H-24.5V59.7h3.554V55.893H-24.5Z" transform="translate(131.015 27.493)" fill="#2a4d6c"/>
          </g>
        </g>
        <g id="Group_194" data-name="Group 194" transform="translate(0.002 0)" clip-path="url(#clip-path-2)">
          <g id="Group_193" data-name="Group 193" transform="translate(28.402 -85.557) rotate(32.976)">
            <path id="Path_315" data-name="Path 315" d="M0,87.609,135.027,0l80.544,124.139L80.544,211.748Z" transform="translate(0 0)" fill="url(#linear-gradient)"/>
          </g>
        </g>
        <g id="Group_196" data-name="Group 196" transform="translate(59.835 34.778)" clip-path="url(#clip-path-3)">
          <g id="Group_195" data-name="Group 195" transform="translate(-31.432 -120.336) rotate(32.976)">
            <path id="Path_317" data-name="Path 317" d="M0,87.609,135.027,0l80.544,124.139L80.544,211.748Z" transform="translate(0 0)" fill="url(#linear-gradient-2)"/>
          </g>
        </g>
        <g id="Group_198" data-name="Group 198" transform="translate(59.829 63.052)" clip-path="url(#clip-path-4)">
          <g id="Group_197" data-name="Group 197" transform="translate(-31.425 -148.61) rotate(32.976)">
            <path id="Path_319" data-name="Path 319" d="M0,87.609,135.027,0l80.544,124.139L80.544,211.748Z" transform="translate(0 0)" fill="url(#linear-gradient-3)"/>
          </g>
        </g>
        <g id="Group_200" data-name="Group 200" transform="translate(0 63.048)" clip-path="url(#clip-path-5)">
          <g id="Group_199" data-name="Group 199" transform="translate(141.677 72.868) rotate(180)">
            <path id="Path_321" data-name="Path 321" d="M160.959,147.979H0V0H160.959Z" transform="translate(0)" fill="url(#linear-gradient-4)"/>
          </g>
        </g>
        <g id="Group_202" data-name="Group 202" transform="translate(29.674 0)" clip-path="url(#clip-path-6)">
          <g id="Group_201" data-name="Group 201" transform="translate(112.003 135.917) rotate(180)">
            <path id="Path_323" data-name="Path 323" d="M160.959,147.979H0V0H160.959Z" transform="translate(0 0)" fill="url(#linear-gradient-5)"/>
          </g>
        </g>
        <g id="Group_204" data-name="Group 204" transform="translate(0 0)" clip-path="url(#clip-path)">
          <g id="Group_203" data-name="Group 203" transform="translate(470.21 46.811)">
            <path id="Path_325" data-name="Path 325" d="M3.886,2.358H2.578V4.695H3.886a1.172,1.172,0,1,0,0-2.337M5.154,8.9,3.569,5.826H2.578V8.9H1.152V1.149H4.065a2.4,2.4,0,0,1,2.5,2.379,2.155,2.155,0,0,1-1.527,2.1L6.759,8.9ZM3.649-.811A5.746,5.746,0,0,0-2.1,5.034a5.736,5.736,0,1,0,11.47,0A5.729,5.729,0,0,0,3.649-.811m0,13.016A7.172,7.172,0,1,1,10.82,5.034a7.17,7.17,0,0,1-7.172,7.172" transform="translate(3.523 2.138)" fill="#2a4d6c"/>
          </g>
        </g>
      </g>
      <g id="Group_211" data-name="Group 211" transform="translate(571 1085.715)">
        <g id="Group_209" data-name="Group 209" transform="translate(0 0)">
          <g id="Group_208" data-name="Group 208" transform="translate(0 0)">
            <path id="Path_327" data-name="Path 327" d="M11.189,0l-27.66,27.66,27.66,27.66Z" transform="translate(16.471)" fill="#764a2d"/>
          </g>
        </g>
        <g id="Group_210" data-name="Group 210" transform="translate(224.555 55.32) rotate(180)">
          <g id="Group_208-2" data-name="Group 208">
            <path id="Path_327-2" data-name="Path 327" d="M27.66,0,0,27.66,27.66,55.32Z" fill="#649342"/>
          </g>
        </g>
      </g>
    </g>
  </g>
</svg>
