<svg xmlns="http://www.w3.org/2000/svg" width="386" height="420" viewBox="0 0 386 420">
  <g id="_2" data-name="2" transform="translate(-489 -576)">
    <rect id="Rectangle_261" data-name="Rectangle 261" width="386" height="420" rx="14" transform="translate(489 576)" fill="#234b6f"/>
    <path id="Path_486" data-name="Path 486" d="M30.12,3.154H22.659V6.211H29.5v2.5H22.659v3.7h7.813V15H19.72V.605h10.4Zm3-2.549h3.153L41.99,10.642V.605h2.8V15H41.785L35.925,4.787V15h-2.8Zm25.151,0V3.154H53.967V15H50.94V3.154H46.614V.605Zm4.966,2.5V6.973h3.237a3.445,3.445,0,0,0,1.447-.234,1.62,1.62,0,0,0,.853-1.621,1.817,1.817,0,0,0-.826-1.758,2.982,2.982,0,0,0-1.391-.254Zm3.946-2.5a6.271,6.271,0,0,1,2.271.371A3.553,3.553,0,0,1,70.8,1.982a4.477,4.477,0,0,1,.724,1.211,4.036,4.036,0,0,1,.267,1.514,4.313,4.313,0,0,1-.518,2.017,2.893,2.893,0,0,1-1.709,1.4,2.688,2.688,0,0,1,1.411,1.138,4.736,4.736,0,0,1,.415,2.251v.967a7.283,7.283,0,0,0,.079,1.338,1.2,1.2,0,0,0,.555.82V15h-3.32q-.137-.479-.2-.771a7.088,7.088,0,0,1-.127-1.24l-.02-1.338a2.719,2.719,0,0,0-.476-1.836,2.425,2.425,0,0,0-1.714-.459H63.24V15H60.3V.605ZM85.363,3.154H77.9V6.211h6.836v2.5H77.9v3.7h7.813V15H74.963V.605h10.4Zm5.22,7.4a2.92,2.92,0,0,0,.548,1.475,3.193,3.193,0,0,0,2.563.889,5.513,5.513,0,0,0,1.765-.234,1.675,1.675,0,0,0,1.286-1.67,1.23,1.23,0,0,0-.63-1.1,6.835,6.835,0,0,0-2-.674L92.558,8.9a9.709,9.709,0,0,1-3.157-1.1,3.51,3.51,0,0,1-1.455-3.115A4.137,4.137,0,0,1,89.37,1.465,6.068,6.068,0,0,1,93.551.186a6.412,6.412,0,0,1,3.93,1.206,4.288,4.288,0,0,1,1.705,3.5H96.3a2.061,2.061,0,0,0-1.161-1.846,3.978,3.978,0,0,0-1.792-.361,3.411,3.411,0,0,0-1.9.469,1.483,1.483,0,0,0-.711,1.309,1.235,1.235,0,0,0,.7,1.152,8.712,8.712,0,0,0,1.912.6l2.526.6a6.425,6.425,0,0,1,2.49,1.045,3.522,3.522,0,0,1,1.287,2.939,4.13,4.13,0,0,1-1.525,3.276,6.436,6.436,0,0,1-4.309,1.3,7.042,7.042,0,0,1-4.471-1.284,4.249,4.249,0,0,1-1.629-3.53ZM112.414.605V3.154h-4.307V15H105.08V3.154h-4.326V.605Zm8.325,12.246a3.436,3.436,0,0,0,2.837-1.318,5.891,5.891,0,0,0,1.05-3.75,5.9,5.9,0,0,0-1.05-3.745,3.431,3.431,0,0,0-2.837-1.323,3.477,3.477,0,0,0-2.852,1.318,5.833,5.833,0,0,0-1.064,3.75,5.833,5.833,0,0,0,1.064,3.75A3.477,3.477,0,0,0,120.739,12.852Zm6.895-5.068a7.785,7.785,0,0,1-2.178,5.938,7.463,7.463,0,0,1-9.434,0,7.765,7.765,0,0,1-2.187-5.937q0-3.955,2.188-5.937a7.463,7.463,0,0,1,9.434,0Q127.633,3.828,127.633,7.783ZM132.951.321a3.315,3.315,0,0,0-2.466,1.048,3.361,3.361,0,0,0-1,2.432A3.373,3.373,0,0,0,130.5,6.28a3.438,3.438,0,0,0,4.893-.006A3.4,3.4,0,0,0,136.409,3.8,3.364,3.364,0,0,0,135.4,1.37,3.3,3.3,0,0,0,132.951.321Zm4.2,3.48a4.039,4.039,0,0,1-1.259,3.013A4.19,4.19,0,0,1,128.753,3.8a4,4,0,0,1,1.31-3.059A4.113,4.113,0,0,1,132.951-.4a4.044,4.044,0,0,1,2.968,1.23A4.044,4.044,0,0,1,137.149,3.8Zm-3.441-.872a.533.533,0,0,0-.376-.53,2.033,2.033,0,0,0-.706-.1h-.3v1.35h.473a1.131,1.131,0,0,0,.666-.171A.632.632,0,0,0,133.709,2.93Zm-2.6,3.207V1.483l1.3,0q.863,0,.96.009a2.239,2.239,0,0,1,.917.239,1.172,1.172,0,0,1,.621,1.111,1.019,1.019,0,0,1-.328.847,1.523,1.523,0,0,1-.806.312,1.579,1.579,0,0,1,.661.269,1.264,1.264,0,0,1,.41,1.044v.416a1.029,1.029,0,0,0,.009.137.673.673,0,0,0,.034.137l.043.131h-1.162a3.408,3.408,0,0,1-.077-.644,2.144,2.144,0,0,0-.077-.57.564.564,0,0,0-.342-.342,1.363,1.363,0,0,0-.416-.074l-.268-.017h-.256V6.137Zm12.558-.317a5.194,5.194,0,0,1,1.313-3.687,4.853,4.853,0,0,1,7.847,1.45,11.141,11.141,0,0,1,.684,4.268,12.144,12.144,0,0,1-.654,4.287,4.581,4.581,0,0,1-4.59,3.271,4.681,4.681,0,0,1-2.861-.942,3.715,3.715,0,0,1-1.455-2.749h2.773a1.676,1.676,0,0,0,.527,1.016,1.633,1.633,0,0,0,1.143.391A1.986,1.986,0,0,0,150.33,11.6a8.888,8.888,0,0,0,.381-2.451,3.01,3.01,0,0,1-.811.732,3.679,3.679,0,0,1-1.924.469,4.375,4.375,0,0,1-3-1.167A4.272,4.272,0,0,1,143.669,5.82Zm4.912,2.266a1.946,1.946,0,0,0,1.084-.332,2.3,2.3,0,0,0,.947-2.1,2.968,2.968,0,0,0-.562-1.9,1.862,1.862,0,0,0-1.538-.7,1.911,1.911,0,0,0-1.221.4,2.531,2.531,0,0,0-.8,2.119A2.948,2.948,0,0,0,147,7.456,1.914,1.914,0,0,0,148.582,8.086Zm7.2-2.852V3.34a12.274,12.274,0,0,0,1.841-.176,2.6,2.6,0,0,0,1.364-.742,2.446,2.446,0,0,0,.546-1.016,2.337,2.337,0,0,0,.107-.566h2.324V15h-2.852V5.234Zm20.4,6.719h-1.6V15h-2.725V11.953h-5.605V9.521L171.452.928h3.125V9.775h1.6Zm-4.326-2.178v-6.1l-3.534,6.1ZM181.527.166h2.316L178.239,15h-2.3Zm11.731,11.787h-1.6V15h-2.725V11.953h-5.605V9.521L188.532.928h3.125V9.775h1.6Zm-4.326-2.178v-6.1l-3.534,6.1Zm6.577-4.541V3.34a12.274,12.274,0,0,0,1.841-.176,2.6,2.6,0,0,0,1.364-.742,2.446,2.446,0,0,0,.546-1.016,2.337,2.337,0,0,0,.107-.566h2.324V15h-2.852V5.234Zm13.354,5.654a2.274,2.274,0,0,0,.542,1.621,2.238,2.238,0,0,0,3,0,2.274,2.274,0,0,0,.542-1.621,2.254,2.254,0,0,0-.552-1.646,2.256,2.256,0,0,0-2.979,0A2.254,2.254,0,0,0,208.864,10.889Zm-2.891.186a4.359,4.359,0,0,1,.539-2.158,3.419,3.419,0,0,1,1.577-1.455,3.308,3.308,0,0,1-1.338-1.479,4.132,4.132,0,0,1-.309-1.489,3.472,3.472,0,0,1,1.165-2.632,5.51,5.51,0,0,1,6.577,0,3.472,3.472,0,0,1,1.165,2.632,4.145,4.145,0,0,1-.308,1.489,2.844,2.844,0,0,1-1.333,1.382,3.934,3.934,0,0,1,1.58,1.553,4.416,4.416,0,0,1,.53,2.158,4.036,4.036,0,0,1-1.325,3.042,5.166,5.166,0,0,1-3.7,1.255,4.8,4.8,0,0,1-3.6-1.255A4.2,4.2,0,0,1,205.973,11.074Zm3.135-6.27a1.731,1.731,0,0,0,.475,1.26,1.752,1.752,0,0,0,1.317.488,1.733,1.733,0,0,0,1.317-.488,1.752,1.752,0,0,0,.465-1.26,1.794,1.794,0,0,0-.465-1.313,1.763,1.763,0,0,0-1.317-.474,1.783,1.783,0,0,0-1.317.474A1.772,1.772,0,0,0,209.108,4.8Zm18.208-1.6A17.584,17.584,0,0,0,225.574,5.4a19.363,19.363,0,0,0-1.869,3.257,19.366,19.366,0,0,0-1.076,3.223A13.357,13.357,0,0,0,222.15,15h-2.891a17.009,17.009,0,0,1,2.5-7.92,18.7,18.7,0,0,1,2.57-3.555h-7.055l.039-2.5h10ZM40.927,25.154H33.466v3.057H40.3v2.5H33.466v3.7h7.813V37H30.526V22.605h10.4Zm8.722.947a4.08,4.08,0,0,1,2.689.864,3.522,3.522,0,0,1,1.045,2.866V37H50.531V30.525a2.974,2.974,0,0,0-.223-1.289,1.566,1.566,0,0,0-1.551-.82,1.923,1.923,0,0,0-1.929,1.2,4.153,4.153,0,0,0-.271,1.621V37H43.773V26.375h2.7v1.553a4.718,4.718,0,0,1,1.011-1.182A3.5,3.5,0,0,1,49.648,26.1Zm12.44,5.723a3.084,3.084,0,0,1-.54.269,4.561,4.561,0,0,1-.747.19l-.634.117a4.166,4.166,0,0,0-1.279.381,1.271,1.271,0,0,0-.658,1.182,1.235,1.235,0,0,0,.4,1.03,1.527,1.527,0,0,0,.977.317,2.909,2.909,0,0,0,1.681-.527,2.233,2.233,0,0,0,.8-1.924Zm-1.7-1.3a4.4,4.4,0,0,0,1.112-.244.837.837,0,0,0,.6-.791.935.935,0,0,0-.46-.9,2.909,2.909,0,0,0-1.351-.249,1.774,1.774,0,0,0-1.416.488,2.015,2.015,0,0,0-.4.977H55.789a4.073,4.073,0,0,1,.785-2.295Q57.682,26.1,60.38,26.1a6.786,6.786,0,0,1,3.119.693,2.659,2.659,0,0,1,1.363,2.617v4.883q0,.508.02,1.23a1.547,1.547,0,0,0,.166.742,1,1,0,0,0,.41.322V37H62.43a3.1,3.1,0,0,1-.176-.605q-.049-.283-.078-.645a5.745,5.745,0,0,1-1.336,1.064,4.037,4.037,0,0,1-2.043.518,3.525,3.525,0,0,1-2.4-.825,2.935,2.935,0,0,1-.948-2.339,3.031,3.031,0,0,1,1.525-2.842,6.81,6.81,0,0,1,2.46-.684ZM70.335,37H67.552V22.605h2.783Zm8.833-5.176a3.084,3.084,0,0,1-.54.269,4.561,4.561,0,0,1-.747.19l-.634.117a4.166,4.166,0,0,0-1.279.381,1.271,1.271,0,0,0-.658,1.182,1.235,1.235,0,0,0,.4,1.03,1.527,1.527,0,0,0,.977.317,2.909,2.909,0,0,0,1.681-.527,2.233,2.233,0,0,0,.8-1.924Zm-1.7-1.3a4.4,4.4,0,0,0,1.112-.244.837.837,0,0,0,.6-.791.935.935,0,0,0-.46-.9,2.909,2.909,0,0,0-1.351-.249,1.774,1.774,0,0,0-1.416.488,2.015,2.015,0,0,0-.4.977H72.869a4.073,4.073,0,0,1,.785-2.295Q74.762,26.1,77.459,26.1a6.786,6.786,0,0,1,3.119.693,2.659,2.659,0,0,1,1.363,2.617v4.883q0,.508.02,1.23a1.547,1.547,0,0,0,.166.742,1,1,0,0,0,.41.322V37H79.51a3.1,3.1,0,0,1-.176-.605q-.049-.283-.078-.645a5.745,5.745,0,0,1-1.336,1.064,4.037,4.037,0,0,1-2.043.518,3.525,3.525,0,0,1-2.4-.825,2.935,2.935,0,0,1-.948-2.339,3.031,3.031,0,0,1,1.525-2.842,6.81,6.81,0,0,1,2.46-.684Zm14.49,1.152a4.156,4.156,0,0,0-.567-2.178,1.98,1.98,0,0,0-1.84-.947,2.093,2.093,0,0,0-2.1,1.436,5.393,5.393,0,0,0-.3,1.934,3.069,3.069,0,0,0,1,2.607,2.286,2.286,0,0,0,1.4.439,2.037,2.037,0,0,0,1.791-.9A4.157,4.157,0,0,0,91.956,31.678Zm-1.611-5.557A4.209,4.209,0,0,1,93.525,27.5a5.674,5.674,0,0,1,1.3,4.043,6.384,6.384,0,0,1-1.273,4.287A4.132,4.132,0,0,1,90.276,37.3a3.437,3.437,0,0,1-2.123-.635,4.1,4.1,0,0,1-.9-1.025v5.547H84.495V26.355h2.666v1.572a4.478,4.478,0,0,1,.963-1.094A3.554,3.554,0,0,1,90.345,26.121Zm12.426-.02q.078,0,.132,0t.239.015v2.852q-.264-.029-.469-.039t-.332-.01a2.308,2.308,0,0,0-2.256,1.094,4.255,4.255,0,0,0-.322,1.895V37h-2.8V26.355h2.656v1.855a5.884,5.884,0,0,1,1.123-1.455A3.057,3.057,0,0,1,102.771,26.1Zm5.063-1.016h-2.822V22.518h2.822Zm-2.822,1.27h2.822V37h-2.822ZM113.571,37h-2.783V22.605h2.783Zm8.759-9.766V25.34a12.274,12.274,0,0,0,1.841-.176,2.6,2.6,0,0,0,1.364-.742,2.446,2.446,0,0,0,.546-1.016,2.337,2.337,0,0,0,.107-.566h2.324V37h-2.852V27.234Zm11.323,0V25.34a12.274,12.274,0,0,0,1.841-.176,2.6,2.6,0,0,0,1.364-.742,2.446,2.446,0,0,0,.546-1.016,2.337,2.337,0,0,0,.107-.566h2.324V37h-2.852V27.234Zm11.323,0V25.34a12.274,12.274,0,0,0,1.841-.176,2.6,2.6,0,0,0,1.364-.742,2.446,2.446,0,0,0,.546-1.016,2.337,2.337,0,0,0,.107-.566h2.324V37h-2.852V27.234ZM165.46,25.2a17.584,17.584,0,0,0-1.742,2.192,18.034,18.034,0,0,0-2.945,6.479A13.357,13.357,0,0,0,160.294,37H157.4a17.009,17.009,0,0,1,2.5-7.92,18.7,18.7,0,0,1,2.57-3.555h-7.055l.039-2.5h10Zm5.261-3.037h2.316L167.433,37h-2.3Zm11.731,11.787h-1.6V37h-2.725V33.953H172.52V31.521l5.205-8.594h3.125v8.848h1.6Zm-4.326-2.178v-6.1l-3.534,6.1ZM183.941,37a6.654,6.654,0,0,1,.654-2.783,7.869,7.869,0,0,1,2.813-3,20.626,20.626,0,0,0,2.49-1.973,2.915,2.915,0,0,0,.869-2.031,2.25,2.25,0,0,0-.5-1.494,2.031,2.031,0,0,0-3.154.352,4.7,4.7,0,0,0-.312,1.738H184.1a6.834,6.834,0,0,1,.655-2.92,4.08,4.08,0,0,1,3.959-2.119,5.023,5.023,0,0,1,3.578,1.245,4.3,4.3,0,0,1,1.329,3.3,4.456,4.456,0,0,1-.939,2.793,9.349,9.349,0,0,1-2.025,1.807l-1.115.791q-1.047.742-1.433,1.074a3.148,3.148,0,0,0-.649.771h6.182V37Zm12.085-9.766V25.34a12.274,12.274,0,0,0,1.841-.176,2.6,2.6,0,0,0,1.364-.742,2.446,2.446,0,0,0,.546-1.016,2.337,2.337,0,0,0,.107-.566h2.324V37h-2.852V27.234ZM206.587,37a6.654,6.654,0,0,1,.654-2.783,7.869,7.869,0,0,1,2.813-3,20.626,20.626,0,0,0,2.49-1.973,2.915,2.915,0,0,0,.869-2.031,2.25,2.25,0,0,0-.5-1.494,2.031,2.031,0,0,0-3.154.352,4.7,4.7,0,0,0-.312,1.738h-2.705a6.834,6.834,0,0,1,.655-2.92,4.08,4.08,0,0,1,3.959-2.119,5.023,5.023,0,0,1,3.578,1.245,4.3,4.3,0,0,1,1.329,3.3,4.456,4.456,0,0,1-.939,2.793,9.349,9.349,0,0,1-2.025,1.807l-1.115.791q-1.047.742-1.433,1.074a3.148,3.148,0,0,0-.649.771h6.182V37ZM46.058,59a6.654,6.654,0,0,1,.654-2.783,7.869,7.869,0,0,1,2.813-3,20.625,20.625,0,0,0,2.49-1.973,2.915,2.915,0,0,0,.869-2.031,2.25,2.25,0,0,0-.5-1.494,2.031,2.031,0,0,0-3.154.352,4.7,4.7,0,0,0-.312,1.738H46.214a6.834,6.834,0,0,1,.655-2.92,4.08,4.08,0,0,1,3.959-2.119,5.023,5.023,0,0,1,3.578,1.245,4.3,4.3,0,0,1,1.329,3.3,4.456,4.456,0,0,1-.939,2.793,9.349,9.349,0,0,1-2.025,1.807l-1.115.791q-1.047.742-1.433,1.074a3.148,3.148,0,0,0-.649.771h6.182V59Zm12.085-9.766V47.34a12.274,12.274,0,0,0,1.841-.176,2.6,2.6,0,0,0,1.364-.742,2.446,2.446,0,0,0,.546-1.016A2.337,2.337,0,0,0,62,44.84h2.324V59H61.473V49.234ZM69.329,56.08h2.959V59H69.329Zm7.925-1.191A2.274,2.274,0,0,0,77.8,56.51a2.238,2.238,0,0,0,3,0,2.712,2.712,0,0,0-.01-3.267,2.256,2.256,0,0,0-2.979,0A2.254,2.254,0,0,0,77.254,54.889Zm-2.891.186a4.359,4.359,0,0,1,.539-2.158,3.419,3.419,0,0,1,1.577-1.455,3.308,3.308,0,0,1-1.338-1.479,4.132,4.132,0,0,1-.309-1.489A3.472,3.472,0,0,1,76,45.86a5.51,5.51,0,0,1,6.577,0,3.472,3.472,0,0,1,1.165,2.632,4.145,4.145,0,0,1-.308,1.489A2.844,2.844,0,0,1,82.1,51.363a3.934,3.934,0,0,1,1.58,1.553,4.416,4.416,0,0,1,.53,2.158,4.036,4.036,0,0,1-1.325,3.042,5.166,5.166,0,0,1-3.7,1.255,4.8,4.8,0,0,1-3.6-1.255A4.2,4.2,0,0,1,74.363,55.074ZM77.5,48.8a1.731,1.731,0,0,0,.475,1.26,1.752,1.752,0,0,0,1.317.488,1.733,1.733,0,0,0,1.317-.488,1.752,1.752,0,0,0,.465-1.26,1.794,1.794,0,0,0-.465-1.313,1.763,1.763,0,0,0-1.317-.474A1.644,1.644,0,0,0,77.5,48.8Zm11.753,1.289a1.55,1.55,0,1,0-1.1-.454A1.5,1.5,0,0,0,89.251,50.094Zm3.633-1.553a3.634,3.634,0,1,1-1.064-2.568A3.508,3.508,0,0,1,92.883,48.541ZM100.3,55.65a1.55,1.55,0,1,0-.454,1.1A1.5,1.5,0,0,0,100.3,55.65Zm2.08,0a3.634,3.634,0,1,1-1.064-2.568A3.5,3.5,0,0,1,102.376,55.65ZM97.19,44.84h1.478L90.782,59.371H89.27Zm19.565,3.516h2.988L115.9,59h-2.935l-3.817-10.645h3.125l2.217,7.852Zm6.924,7.246a1.854,1.854,0,0,0,.383,1.055,2.6,2.6,0,0,0,1.923.557,2.944,2.944,0,0,0,1.31-.244.818.818,0,0,0,.094-1.445,15.97,15.97,0,0,0-2.912-.84,6.049,6.049,0,0,1-2.556-1.123,2.435,2.435,0,0,1-.742-1.914,3.317,3.317,0,0,1,1.16-2.534,4.664,4.664,0,0,1,3.264-1.06,6,6,0,0,1,3.254.8A3.407,3.407,0,0,1,130.3,51.6h-2.783a1.644,1.644,0,0,0-.3-.85,1.913,1.913,0,0,0-1.567-.566,2.256,2.256,0,0,0-1.3.283.815.815,0,0,0-.387.664.726.726,0,0,0,.411.693,17.829,17.829,0,0,0,2.906.771,5.33,5.33,0,0,1,2.493,1.182,2.683,2.683,0,0,1,.82,2,3.232,3.232,0,0,1-1.179,2.583,7.086,7.086,0,0,1-7.358-.059,3.444,3.444,0,0,1-1.2-2.7Zm9.116.479h2.959V59h-2.959ZM143.683,59a6.654,6.654,0,0,1,.654-2.783,7.869,7.869,0,0,1,2.813-3,20.626,20.626,0,0,0,2.49-1.973,2.915,2.915,0,0,0,.869-2.031,2.25,2.25,0,0,0-.5-1.494,2.031,2.031,0,0,0-3.154.352,4.7,4.7,0,0,0-.312,1.738h-2.705a6.834,6.834,0,0,1,.655-2.92,4.08,4.08,0,0,1,3.959-2.119,5.023,5.023,0,0,1,3.578,1.245,4.3,4.3,0,0,1,1.329,3.3,4.456,4.456,0,0,1-.939,2.793,9.349,9.349,0,0,1-2.025,1.807l-1.115.791q-1.047.742-1.433,1.074a3.148,3.148,0,0,0-.649.771h6.182V59ZM157.8,54.518a2.777,2.777,0,0,0,.615,1.865,1.963,1.963,0,0,0,1.563.723,1.735,1.735,0,0,0,1.46-.7,2.907,2.907,0,0,0,.532-1.812,2.711,2.711,0,0,0-.605-1.9,1.938,1.938,0,0,0-1.484-.659,1.982,1.982,0,0,0-1.26.43A2.432,2.432,0,0,0,157.8,54.518Zm3.916-6.113a1.42,1.42,0,0,0-.264-.752,1.528,1.528,0,0,0-1.357-.664,2.007,2.007,0,0,0-1.934,1.523,9.454,9.454,0,0,0-.43,2.48,3.124,3.124,0,0,1,1.2-.9,4.4,4.4,0,0,1,4.653,1,4.578,4.578,0,0,1,1.206,3.271,5.522,5.522,0,0,1-1.182,3.5,4.369,4.369,0,0,1-3.672,1.514,4.226,4.226,0,0,1-3.945-2.236,9.119,9.119,0,0,1-.986-4.512,20.517,20.517,0,0,1,.137-2.637,8.063,8.063,0,0,1,.947-3.008,4.847,4.847,0,0,1,1.587-1.65,4.28,4.28,0,0,1,2.349-.625,4.649,4.649,0,0,1,3.145,1.011,3.843,3.843,0,0,1,1.318,2.69Zm5.239,7.676h2.959V59h-2.959Zm7.807-.869a2.688,2.688,0,0,0,.633,1.4,1.791,1.791,0,0,0,1.364.493,1.839,1.839,0,0,0,1.573-.728,2.986,2.986,0,0,0,.541-1.831,3.187,3.187,0,0,0-.507-1.831,1.773,1.773,0,0,0-1.578-.747,2.709,2.709,0,0,0-.877.127,1.744,1.744,0,0,0-.984.869l-2.495-.117.994-7.822h7.791v2.363h-5.783l-.507,3.1a5.806,5.806,0,0,1,1-.557A4.248,4.248,0,0,1,177.4,49.7a4.272,4.272,0,0,1,4.369,4.619,5.4,5.4,0,0,1-1.259,3.506,4.574,4.574,0,0,1-3.766,1.543,5,5,0,0,1-3.317-1.084,4.213,4.213,0,0,1-1.444-3.076Zm12.114-5.117a1.55,1.55,0,1,0-1.1-.454A1.5,1.5,0,0,0,186.876,50.094Zm3.633-1.553a3.634,3.634,0,1,1-1.064-2.568A3.508,3.508,0,0,1,190.508,48.541Zm7.412,7.109a1.55,1.55,0,1,0-.454,1.1A1.5,1.5,0,0,0,197.921,55.65Zm2.08,0a3.634,3.634,0,1,1-1.064-2.568A3.5,3.5,0,0,1,200,55.65ZM194.815,44.84h1.478l-7.887,14.531H186.9Z" transform="translate(559 905)" fill="#fff"/>
    <path id="Path_483" data-name="Path 483" d="M28.437,8.26a2.778,2.778,0,0,0-.8-2.242,3.392,3.392,0,0,0-2.241-.67H21.6v5.934H25.4a3.219,3.219,0,0,0,2.241-.725A2.957,2.957,0,0,0,28.437,8.26Zm4.184-.027q0,3.568-1.77,5.045A7.686,7.686,0,0,1,25.8,14.754H21.6V22H17.417V1.848H26.07a6.983,6.983,0,0,1,4.771,1.559A6.086,6.086,0,0,1,32.62,8.232Zm11.436-1.49q.109,0,.185.007t.335.021v3.992q-.369-.041-.656-.055t-.465-.014A3.232,3.232,0,0,0,40.3,12.225a5.957,5.957,0,0,0-.451,2.652V22H35.922V7.1h3.719V9.7a8.238,8.238,0,0,1,1.572-2.037A4.28,4.28,0,0,1,44.057,6.742ZM51.145,5.32H47.194v-3.6h3.951ZM47.194,7.1h3.951V22H47.194ZM71.851,6.77a5.187,5.187,0,0,1,1.941.383,4.331,4.331,0,0,1,1.736,1.34,4.281,4.281,0,0,1,.848,1.914,13.229,13.229,0,0,1,.137,2.2L76.486,22H72.493V12.512a3.114,3.114,0,0,0-.273-1.395,1.943,1.943,0,0,0-1.914-1.039,2.24,2.24,0,0,0-2.229,1.34,4.208,4.208,0,0,0-.314,1.709V22H63.839V13.127a4.983,4.983,0,0,0-.273-1.928,1.909,1.909,0,0,0-1.928-1.08A2.3,2.3,0,0,0,59.4,11.2a4.162,4.162,0,0,0-.314,1.832V22H55.13V7.125h3.787V9.3a6.271,6.271,0,0,1,1.367-1.654,5.41,5.41,0,0,1,5.7-.123,4.374,4.374,0,0,1,1.285,1.791,4.955,4.955,0,0,1,1.9-1.928A5.8,5.8,0,0,1,71.851,6.77ZM88.66,14.754a4.318,4.318,0,0,1-.755.376,6.385,6.385,0,0,1-1.046.267l-.887.164a5.832,5.832,0,0,0-1.791.533,1.78,1.78,0,0,0-.921,1.654,1.729,1.729,0,0,0,.562,1.442,2.137,2.137,0,0,0,1.367.444,4.072,4.072,0,0,0,2.353-.738A3.127,3.127,0,0,0,88.66,16.2Zm-2.383-1.818a6.164,6.164,0,0,0,1.556-.342,1.172,1.172,0,0,0,.84-1.107,1.309,1.309,0,0,0-.644-1.265,4.073,4.073,0,0,0-1.892-.349,2.484,2.484,0,0,0-1.982.684,2.821,2.821,0,0,0-.554,1.367h-3.76a5.7,5.7,0,0,1,1.1-3.213q1.552-1.969,5.328-1.969a9.5,9.5,0,0,1,4.366.971,3.723,3.723,0,0,1,1.909,3.664v6.836q0,.711.027,1.723a2.166,2.166,0,0,0,.232,1.039,1.4,1.4,0,0,0,.574.451V22H89.139a4.34,4.34,0,0,1-.246-.848q-.068-.4-.109-.9a8.044,8.044,0,0,1-1.87,1.49,5.651,5.651,0,0,1-2.86.725A4.935,4.935,0,0,1,80.69,21.31a4.109,4.109,0,0,1-1.327-3.274A4.243,4.243,0,0,1,81.5,14.057a9.533,9.533,0,0,1,3.443-.957Zm18.044-6.193q.109,0,.185.007t.335.021v3.992q-.369-.041-.656-.055t-.465-.014a3.232,3.232,0,0,0-3.158,1.531,5.957,5.957,0,0,0-.451,2.652V22H96.186V7.1h3.719V9.7a8.238,8.238,0,0,1,1.572-2.037A4.28,4.28,0,0,1,104.321,6.742Zm3.671,18.115.492.027a6.141,6.141,0,0,0,1.094-.041,1.964,1.964,0,0,0,.875-.314,2.1,2.1,0,0,0,.636-.971,2.344,2.344,0,0,0,.253-.9L105.866,7.1H110.2l3.254,10.992L116.53,7.1h4.143l-5.109,14.656a20.606,20.606,0,0,1-2.343,5.257q-.862,1.019-3.449,1.019-.52,0-.835-.007t-.944-.048Zm32.238-12.414a3.453,3.453,0,0,0-.562-1.5,2.358,2.358,0,0,0-2.042-.9,2.689,2.689,0,0,0-2.7,1.955,8.118,8.118,0,0,0-.384,2.755,7.464,7.464,0,0,0,.384,2.632,2.606,2.606,0,0,0,2.631,1.859A2.323,2.323,0,0,0,139.5,18.5a3.669,3.669,0,0,0,.7-1.914h3.979a6.516,6.516,0,0,1-1.286,3.363,6.256,6.256,0,0,1-5.433,2.557q-3.6,0-5.3-2.133a8.614,8.614,0,0,1-1.7-5.531,8.74,8.74,0,0,1,1.875-5.967,6.529,6.529,0,0,1,5.173-2.133A7.8,7.8,0,0,1,142.107,8q1.786,1.258,2.114,4.443Zm13.624,6.795a3.09,3.09,0,0,0,2.625-1.215,5.646,5.646,0,0,0,.916-3.454,5.615,5.615,0,0,0-.916-3.447,3.463,3.463,0,0,0-5.257,0,5.584,5.584,0,0,0-.923,3.447,5.615,5.615,0,0,0,.923,3.454A3.109,3.109,0,0,0,153.853,19.238Zm7.629-4.669a8.627,8.627,0,0,1-1.887,5.607,8.209,8.209,0,0,1-11.457,0,8.627,8.627,0,0,1-1.887-5.607,8.684,8.684,0,0,1,1.887-5.587,8.125,8.125,0,0,1,11.457,0A8.684,8.684,0,0,1,161.482,14.569ZM181.2,6.77a5.187,5.187,0,0,1,1.941.383,4.331,4.331,0,0,1,1.736,1.34,4.281,4.281,0,0,1,.848,1.914,13.23,13.23,0,0,1,.137,2.2L185.838,22h-3.992V12.512a3.114,3.114,0,0,0-.273-1.395,1.943,1.943,0,0,0-1.914-1.039,2.24,2.24,0,0,0-2.229,1.34,4.207,4.207,0,0,0-.314,1.709V22h-3.924V13.127a4.983,4.983,0,0,0-.273-1.928,1.909,1.909,0,0,0-1.928-1.08,2.3,2.3,0,0,0-2.242,1.08,4.162,4.162,0,0,0-.314,1.832V22h-3.951V7.125h3.787V9.3a6.271,6.271,0,0,1,1.367-1.654,5.41,5.41,0,0,1,5.7-.123,4.374,4.374,0,0,1,1.285,1.791,4.955,4.955,0,0,1,1.9-1.928A5.8,5.8,0,0,1,181.2,6.77Zm18.86,7.779a5.818,5.818,0,0,0-.794-3.049,2.772,2.772,0,0,0-2.576-1.326,2.93,2.93,0,0,0-2.942,2.01,7.551,7.551,0,0,0-.414,2.707,4.3,4.3,0,0,0,1.394,3.65,3.2,3.2,0,0,0,1.962.615A2.852,2.852,0,0,0,199.2,17.9,5.819,5.819,0,0,0,200.064,14.549ZM197.809,6.77A5.893,5.893,0,0,1,202.26,8.7a7.943,7.943,0,0,1,1.823,5.66,8.938,8.938,0,0,1-1.782,6,5.784,5.784,0,0,1-4.589,2.064,4.812,4.812,0,0,1-2.972-.889,5.744,5.744,0,0,1-1.266-1.436v7.766h-3.855V7.1h3.732V9.3A6.27,6.27,0,0,1,194.7,7.768,4.976,4.976,0,0,1,197.809,6.77ZM213.8,19.238a3.09,3.09,0,0,0,2.625-1.215,5.646,5.646,0,0,0,.916-3.454,5.615,5.615,0,0,0-.916-3.447,3.463,3.463,0,0,0-5.257,0,5.584,5.584,0,0,0-.923,3.447,5.615,5.615,0,0,0,.923,3.454A3.109,3.109,0,0,0,213.8,19.238Zm7.629-4.669a8.627,8.627,0,0,1-1.887,5.607,8.209,8.209,0,0,1-11.457,0,8.627,8.627,0,0,1-1.887-5.607,8.684,8.684,0,0,1,1.887-5.587,8.125,8.125,0,0,1,11.457,0A8.684,8.684,0,0,1,221.426,14.569Zm6.091,2.673a2.6,2.6,0,0,0,.536,1.477,3.633,3.633,0,0,0,2.693.779,4.121,4.121,0,0,0,1.834-.342,1.145,1.145,0,0,0,.132-2.023,22.357,22.357,0,0,0-4.076-1.176,8.469,8.469,0,0,1-3.579-1.572,3.409,3.409,0,0,1-1.039-2.68,4.643,4.643,0,0,1,1.624-3.548,6.53,6.53,0,0,1,4.569-1.483,8.4,8.4,0,0,1,4.556,1.114,4.77,4.77,0,0,1,2.021,3.849h-3.9a2.3,2.3,0,0,0-.425-1.189,2.678,2.678,0,0,0-2.194-.793,3.159,3.159,0,0,0-1.816.4,1.141,1.141,0,0,0-.542.93,1.017,1.017,0,0,0,.576.971,24.96,24.96,0,0,0,4.068,1.08,7.462,7.462,0,0,1,3.491,1.654,3.756,3.756,0,0,1,1.148,2.8,4.525,4.525,0,0,1-1.651,3.616,7.767,7.767,0,0,1-5.1,1.4q-3.521,0-5.2-1.483a4.822,4.822,0,0,1-1.678-3.78ZM244.353,5.32H240.4v-3.6h3.951ZM240.4,7.1h3.951V22H240.4Zm6.473,2.912V7.234h2.078V3.078h3.855V7.234h2.42V10.01h-2.42v7.875a1.774,1.774,0,0,0,.232,1.142,2.559,2.559,0,0,0,1.422.226q.178,0,.376-.007t.39-.021v2.912l-1.846.068q-2.762.1-3.773-.957a2.849,2.849,0,0,1-.656-2.064V10.01Zm17.343-.1a3.09,3.09,0,0,0-2.326.851,4.05,4.05,0,0,0-1.038,2.307h6.713a3.251,3.251,0,0,0-1.038-2.355A3.415,3.415,0,0,0,264.218,9.914Zm0-3.213a8.484,8.484,0,0,1,3.5.7A6.06,6.06,0,0,1,270.3,9.6a7.324,7.324,0,0,1,1.187,3.081,19.017,19.017,0,0,1,.128,2.958H260.758a3.576,3.576,0,0,0,1.558,3.145,3.959,3.959,0,0,0,2.148.561,3.026,3.026,0,0,0,2.966-1.709h3.978a4.866,4.866,0,0,1-1.445,2.693,7.242,7.242,0,0,1-5.607,2.174,8.123,8.123,0,0,1-5.249-1.834q-2.274-1.834-2.274-5.966a8.069,8.069,0,0,1,2.053-5.939A7.184,7.184,0,0,1,264.217,6.7Zm24.391,12.537a3.09,3.09,0,0,0,2.625-1.215,5.646,5.646,0,0,0,.916-3.454,5.615,5.615,0,0,0-.916-3.447,3.463,3.463,0,0,0-5.257,0,5.584,5.584,0,0,0-.923,3.447,5.615,5.615,0,0,0,.923,3.454A3.109,3.109,0,0,0,288.608,19.238Zm7.629-4.669a8.627,8.627,0,0,1-1.887,5.607,8.209,8.209,0,0,1-11.457,0,8.627,8.627,0,0,1-1.887-5.607,8.684,8.684,0,0,1,1.887-5.587,8.125,8.125,0,0,1,11.457,0A8.684,8.684,0,0,1,296.236,14.569ZM304.8,1.643q.369,0,.67.021t.82.062V4.9q-.328-.041-1.1-.062a1.267,1.267,0,0,0-1.066.342,1.24,1.24,0,0,0-.294.8V7.234h2.557V9.982h-2.557V22h-3.869V9.982h-2.187V7.234h2.133V6.277a5.035,5.035,0,0,1,.807-3.295Q301.561,1.643,304.8,1.643ZM5.134,31.875H19.5v3.541H9.317v4.635h8.928v3.5H9.317V52H5.134ZM26.208,35.32H22.257v-3.6h3.951ZM22.257,37.1h3.951V52H22.257Zm16.1-.355q.109,0,.185.007t.335.021v3.992q-.369-.041-.656-.055t-.465-.014A3.232,3.232,0,0,0,34.6,42.225a5.957,5.957,0,0,0-.451,2.652V52H30.221V37.1H33.94v2.6a8.238,8.238,0,0,1,1.572-2.037A4.28,4.28,0,0,1,38.356,36.742Zm6.1,10.5A2.6,2.6,0,0,0,45,48.719a3.633,3.633,0,0,0,2.693.779,4.121,4.121,0,0,0,1.834-.342,1.145,1.145,0,0,0,.132-2.023,22.358,22.358,0,0,0-4.076-1.176A8.469,8.469,0,0,1,42,44.385a3.409,3.409,0,0,1-1.039-2.68,4.643,4.643,0,0,1,1.624-3.548,6.53,6.53,0,0,1,4.569-1.483,8.4,8.4,0,0,1,4.556,1.114,4.77,4.77,0,0,1,2.021,3.849h-3.9a2.3,2.3,0,0,0-.425-1.189,2.678,2.678,0,0,0-2.194-.793,3.159,3.159,0,0,0-1.816.4,1.141,1.141,0,0,0-.542.93,1.017,1.017,0,0,0,.576.971,24.96,24.96,0,0,0,4.068,1.08,7.462,7.462,0,0,1,3.491,1.654,3.756,3.756,0,0,1,1.148,2.8A4.525,4.525,0,0,1,52.489,51.1a7.767,7.767,0,0,1-5.1,1.4q-3.521,0-5.2-1.483a4.822,4.822,0,0,1-1.678-3.78Zm11.3-7.232V37.234h2.078V33.078h3.855v4.156h2.42V40.01h-2.42v7.875a1.774,1.774,0,0,0,.232,1.142,2.559,2.559,0,0,0,1.422.226q.178,0,.376-.007t.39-.021v2.912l-1.846.068q-2.762.1-3.773-.957a2.849,2.849,0,0,1-.656-2.064V40.01ZM75.241,52V31.848h4.184v7.684h7.834V31.848h4.184V52H87.259V43H79.425v9ZM95.769,31.875h14.369v3.541H99.953v4.635h8.928v3.5H99.953V52H95.769ZM129.11,36.7a6.306,6.306,0,0,1,2.5.479,4.373,4.373,0,0,1,1.845,1.464,3.9,3.9,0,0,1,.749,1.717,21.249,21.249,0,0,1,.136,2.88V52h-3.979V42.925a4.019,4.019,0,0,0-.407-1.944,2.04,2.04,0,0,0-2.008-1.04,2.755,2.755,0,0,0-2.328,1.033,4.758,4.758,0,0,0-.794,2.95V52h-3.9V31.916h3.9v7.109a4.765,4.765,0,0,1,1.953-1.812A5.5,5.5,0,0,1,129.11,36.7Zm15.857,12.537a3.09,3.09,0,0,0,2.625-1.215,5.646,5.646,0,0,0,.916-3.454,5.615,5.615,0,0,0-.916-3.447,3.463,3.463,0,0,0-5.257,0,5.584,5.584,0,0,0-.923,3.447,5.615,5.615,0,0,0,.923,3.454A3.109,3.109,0,0,0,144.967,49.238Zm7.629-4.669a8.627,8.627,0,0,1-1.887,5.607,8.209,8.209,0,0,1-11.457,0,9.246,9.246,0,0,1,0-11.194,8.125,8.125,0,0,1,11.457,0A8.684,8.684,0,0,1,152.6,44.569Zm6.091,2.673a2.6,2.6,0,0,0,.536,1.477,3.633,3.633,0,0,0,2.693.779,4.121,4.121,0,0,0,1.834-.342,1.145,1.145,0,0,0,.132-2.023,22.357,22.357,0,0,0-4.076-1.176,8.469,8.469,0,0,1-3.579-1.572,3.409,3.409,0,0,1-1.039-2.68,4.643,4.643,0,0,1,1.624-3.548,6.53,6.53,0,0,1,4.569-1.483,8.4,8.4,0,0,1,4.556,1.114,4.77,4.77,0,0,1,2.021,3.849h-3.9a2.3,2.3,0,0,0-.425-1.189,2.678,2.678,0,0,0-2.194-.793,3.159,3.159,0,0,0-1.816.4,1.141,1.141,0,0,0-.542.93,1.017,1.017,0,0,0,.576.971,24.96,24.96,0,0,0,4.068,1.08,7.462,7.462,0,0,1,3.491,1.654,3.756,3.756,0,0,1,1.148,2.8,4.525,4.525,0,0,1-1.651,3.616,7.767,7.767,0,0,1-5.1,1.4q-3.521,0-5.2-1.483a4.822,4.822,0,0,1-1.678-3.78Zm23.167-2.693a5.818,5.818,0,0,0-.794-3.049,2.772,2.772,0,0,0-2.576-1.326,2.93,2.93,0,0,0-2.942,2.01,7.551,7.551,0,0,0-.414,2.707,4.3,4.3,0,0,0,1.394,3.65,3.2,3.2,0,0,0,1.962.615,2.852,2.852,0,0,0,2.508-1.258A5.819,5.819,0,0,0,181.853,44.549ZM179.6,36.77a5.893,5.893,0,0,1,4.451,1.928,7.943,7.943,0,0,1,1.823,5.66,8.938,8.938,0,0,1-1.782,6,5.784,5.784,0,0,1-4.589,2.064,4.811,4.811,0,0,1-2.972-.889,5.744,5.744,0,0,1-1.266-1.436v7.766h-3.855V37.1h3.732v2.2a6.27,6.27,0,0,1,1.348-1.531A4.976,4.976,0,0,1,179.6,36.77Zm13.308-1.449h-3.951v-3.6h3.951ZM188.955,37.1h3.951V52h-3.951Zm6.473,2.912V37.234h2.078V33.078h3.855v4.156h2.42V40.01h-2.42v7.875a1.774,1.774,0,0,0,.232,1.142,2.559,2.559,0,0,0,1.422.226q.178,0,.376-.007t.39-.021v2.912l-1.846.068q-2.762.1-3.773-.957a2.849,2.849,0,0,1-.656-2.064V40.01Zm19.42,4.744a4.318,4.318,0,0,1-.755.376,6.386,6.386,0,0,1-1.046.267l-.887.164a5.832,5.832,0,0,0-1.791.533,1.78,1.78,0,0,0-.921,1.654,1.729,1.729,0,0,0,.562,1.442,2.137,2.137,0,0,0,1.367.444,4.072,4.072,0,0,0,2.353-.738,3.127,3.127,0,0,0,1.117-2.693Zm-2.383-1.818a6.164,6.164,0,0,0,1.556-.342,1.172,1.172,0,0,0,.84-1.107,1.309,1.309,0,0,0-.644-1.265,4.073,4.073,0,0,0-1.892-.349,2.484,2.484,0,0,0-1.982.684,2.821,2.821,0,0,0-.554,1.367h-3.76a5.7,5.7,0,0,1,1.1-3.213q1.552-1.969,5.328-1.969a9.5,9.5,0,0,1,4.366.971,3.723,3.723,0,0,1,1.909,3.664v6.836q0,.711.027,1.723a2.166,2.166,0,0,0,.232,1.039,1.4,1.4,0,0,0,.574.451V52h-4.238a4.341,4.341,0,0,1-.246-.848q-.068-.4-.109-.9a8.044,8.044,0,0,1-1.87,1.49,5.651,5.651,0,0,1-2.86.725,4.935,4.935,0,0,1-3.362-1.155,4.109,4.109,0,0,1-1.327-3.274,4.243,4.243,0,0,1,2.135-3.979,9.533,9.533,0,0,1,3.443-.957ZM226.395,52h-3.9V31.848h3.9Zm8.087-16.68H230.53v-3.6h3.951ZM230.53,37.1h3.951V52H230.53Zm7.157,3.172V37.1h11.785v3.24L242.16,48.8h7.572V52H237.168V48.965l7.387-8.7ZM261.1,44.754a4.318,4.318,0,0,1-.755.376,6.387,6.387,0,0,1-1.046.267l-.887.164a5.831,5.831,0,0,0-1.791.533,1.78,1.78,0,0,0-.921,1.654,1.729,1.729,0,0,0,.562,1.442,2.137,2.137,0,0,0,1.367.444,4.073,4.073,0,0,0,2.353-.738A3.127,3.127,0,0,0,261.1,46.2Zm-2.383-1.818a6.164,6.164,0,0,0,1.556-.342,1.172,1.172,0,0,0,.84-1.107,1.309,1.309,0,0,0-.644-1.265,4.073,4.073,0,0,0-1.892-.349,2.484,2.484,0,0,0-1.982.684,2.821,2.821,0,0,0-.554,1.367h-3.76a5.7,5.7,0,0,1,1.1-3.213q1.552-1.969,5.328-1.969a9.5,9.5,0,0,1,4.366.971,3.723,3.723,0,0,1,1.909,3.664v6.836q0,.711.027,1.723a2.166,2.166,0,0,0,.232,1.039,1.4,1.4,0,0,0,.574.451V52h-4.238a4.339,4.339,0,0,1-.246-.848q-.068-.4-.109-.9a8.044,8.044,0,0,1-1.87,1.49,5.651,5.651,0,0,1-2.86.725,4.936,4.936,0,0,1-3.362-1.155,4.109,4.109,0,0,1-1.327-3.274,4.243,4.243,0,0,1,2.135-3.979,9.533,9.533,0,0,1,3.443-.957Zm8.419-2.926V37.234h2.078V33.078h3.855v4.156h2.42V40.01h-2.42v7.875a1.774,1.774,0,0,0,.232,1.142,2.559,2.559,0,0,0,1.422.226q.178,0,.376-.007t.39-.021v2.912l-1.846.068q-2.762.1-3.773-.957a2.849,2.849,0,0,1-.656-2.064V40.01Zm15.141-4.689h-3.951v-3.6h3.951ZM278.326,37.1h3.951V52h-3.951Zm14.69,12.141a3.09,3.09,0,0,0,2.625-1.215,5.646,5.646,0,0,0,.916-3.454,5.615,5.615,0,0,0-.916-3.447,3.463,3.463,0,0,0-5.257,0,5.584,5.584,0,0,0-.923,3.447,5.615,5.615,0,0,0,.923,3.454A3.109,3.109,0,0,0,293.016,49.238Zm7.629-4.669a8.627,8.627,0,0,1-1.887,5.607,8.209,8.209,0,0,1-11.457,0,9.246,9.246,0,0,1,0-11.194,8.125,8.125,0,0,1,11.457,0A8.684,8.684,0,0,1,300.645,44.569Zm11.322-7.827a5.712,5.712,0,0,1,3.764,1.21,4.931,4.931,0,0,1,1.464,4.013V52H313.2V42.936a4.163,4.163,0,0,0-.312-1.8,2.193,2.193,0,0,0-2.171-1.148,2.692,2.692,0,0,0-2.7,1.682,5.814,5.814,0,0,0-.38,2.27V52h-3.9V37.125h3.773V39.3a6.606,6.606,0,0,1,1.416-1.654A4.906,4.906,0,0,1,311.967,36.742Zm-227.11,42.5a3.09,3.09,0,0,0,2.625-1.215,6.957,6.957,0,0,0,0-6.9,3.463,3.463,0,0,0-5.257,0,6.912,6.912,0,0,0,0,6.9A3.109,3.109,0,0,0,84.857,79.238Zm7.629-4.669A8.627,8.627,0,0,1,90.6,80.177a6.935,6.935,0,0,1-5.729,2.329,6.935,6.935,0,0,1-5.729-2.329,9.246,9.246,0,0,1,0-11.194,6.888,6.888,0,0,1,5.729-2.363A6.888,6.888,0,0,1,90.6,68.982,8.684,8.684,0,0,1,92.486,74.569Zm11.163-7.827q.109,0,.185.007t.335.021v3.992q-.369-.041-.656-.055t-.465-.014a3.232,3.232,0,0,0-3.158,1.531,5.957,5.957,0,0,0-.451,2.652V82H95.514V67.1h3.719v2.6a8.238,8.238,0,0,1,1.572-2.037A4.28,4.28,0,0,1,103.649,66.742Zm10.581,5.346q0-5.277,2.8-8.135a8.3,8.3,0,0,1,6.195-2.488q5.031,0,7.358,3.336a7.27,7.27,0,0,1,1.38,3.76h-4.211a5.736,5.736,0,0,0-1.031-2.187,4.572,4.572,0,0,0-6.884.54,9.047,9.047,0,0,0-1.3,5.243,7.942,7.942,0,0,0,1.371,5.079,4.3,4.3,0,0,0,3.484,1.688,3.947,3.947,0,0,0,3.3-1.449,6.361,6.361,0,0,0,1.043-2.338h4.184a9.078,9.078,0,0,1-2.766,5.359,8.05,8.05,0,0,1-5.7,2.064,8.555,8.555,0,0,1-6.763-2.789A11.242,11.242,0,0,1,114.23,72.088ZM147.4,61.848h4.375L144.9,82h-3.978l-6.815-20.152h4.5l4.375,15.3Zm20.4,4.895a4.806,4.806,0,0,1,2.406.595,4.733,4.733,0,0,1,1.709,1.647V61.875h3.951V82h-3.787V79.936a5.5,5.5,0,0,1-1.9,1.928,5.335,5.335,0,0,1-2.652.6,5.538,5.538,0,0,1-4.4-2.112,8.111,8.111,0,0,1-1.784-5.421,9.33,9.33,0,0,1,1.757-6A5.716,5.716,0,0,1,167.8,66.742Zm.848,12.441a2.877,2.877,0,0,0,2.516-1.23,5.436,5.436,0,0,0,.861-3.186,4.886,4.886,0,0,0-1.381-3.91,2.972,2.972,0,0,0-1.969-.711,2.737,2.737,0,0,0-2.509,1.292,6.966,6.966,0,0,0,.014,6.508A2.752,2.752,0,0,0,168.65,79.184Zm17.247-9.27a3.09,3.09,0,0,0-2.326.851,4.05,4.05,0,0,0-1.038,2.307h6.713a3.251,3.251,0,0,0-1.038-2.355A3.415,3.415,0,0,0,185.9,69.914Zm0-3.213a8.484,8.484,0,0,1,3.5.7,6.06,6.06,0,0,1,2.575,2.2,7.324,7.324,0,0,1,1.187,3.081,19.017,19.017,0,0,1,.128,2.958H182.438A3.576,3.576,0,0,0,184,78.787a3.959,3.959,0,0,0,2.148.561,3.026,3.026,0,0,0,2.966-1.709h3.978a4.865,4.865,0,0,1-1.445,2.693,7.242,7.242,0,0,1-5.607,2.174,8.123,8.123,0,0,1-5.249-1.834q-2.274-1.834-2.274-5.966a8.069,8.069,0,0,1,2.053-5.939A7.184,7.184,0,0,1,185.9,66.7Zm17.931,8.053a4.318,4.318,0,0,1-.755.376,6.386,6.386,0,0,1-1.046.267l-.887.164a5.832,5.832,0,0,0-1.791.533,1.78,1.78,0,0,0-.921,1.654,1.729,1.729,0,0,0,.562,1.442,2.137,2.137,0,0,0,1.367.444,4.072,4.072,0,0,0,2.353-.738,3.127,3.127,0,0,0,1.117-2.693Zm-2.383-1.818A6.165,6.165,0,0,0,203,72.594a1.172,1.172,0,0,0,.84-1.107,1.309,1.309,0,0,0-.644-1.265,4.073,4.073,0,0,0-1.892-.349,2.484,2.484,0,0,0-1.982.684,2.821,2.821,0,0,0-.554,1.367h-3.76a5.7,5.7,0,0,1,1.1-3.213q1.552-1.969,5.328-1.969a9.5,9.5,0,0,1,4.366.971,3.723,3.723,0,0,1,1.909,3.664v6.836q0,.711.027,1.723a2.166,2.166,0,0,0,.232,1.039,1.4,1.4,0,0,0,.574.451V82h-4.238a4.341,4.341,0,0,1-.246-.848q-.068-.4-.109-.9a8.044,8.044,0,0,1-1.87,1.49,5.651,5.651,0,0,1-2.86.725,4.936,4.936,0,0,1-3.362-1.155,4.109,4.109,0,0,1-1.327-3.274,4.243,4.243,0,0,1,2.135-3.979,9.533,9.533,0,0,1,3.443-.957Zm8.419-2.926V67.234h2.078V63.078H215.8v4.156h2.42V70.01H215.8v7.875a1.774,1.774,0,0,0,.232,1.142,2.559,2.559,0,0,0,1.422.226q.178,0,.376-.007t.39-.021v2.912l-1.846.068q-2.762.1-3.773-.957a2.849,2.849,0,0,1-.656-2.064V70.01ZM229.211,66.7a6.306,6.306,0,0,1,2.5.479,4.373,4.373,0,0,1,1.845,1.464,3.9,3.9,0,0,1,.749,1.717,21.245,21.245,0,0,1,.136,2.88V82H230.46V72.925a4.019,4.019,0,0,0-.407-1.944,2.04,2.04,0,0,0-2.008-1.04,2.755,2.755,0,0,0-2.328,1.033,4.758,4.758,0,0,0-.794,2.95V82h-3.9V61.916h3.9v7.109a4.765,4.765,0,0,1,1.953-1.812A5.5,5.5,0,0,1,229.211,66.7Zm8.055-2.131h3.07V61.277h1.539v3.294h3.086v1.276h-3.086v5.168h3.086V72.25h-3.086v3.3h-1.539v-3.3h-3.07V71.014h3.07V65.847h-3.07Z" transform="translate(521 597)" fill="#ffe036"/>
    <g id="Group_570" data-name="Group 570" transform="translate(437.416 -107.724)">
      <g id="Rectangle_263" data-name="Rectangle 263" transform="translate(182.405 821.759)" fill="#ffe036" stroke="#707070" stroke-width="1">
        <rect width="124.211" height="104.66" stroke="none"/>
        <rect x="0.5" y="0.5" width="123.211" height="103.66" fill="none"/>
      </g>
      <path id="Path_406" data-name="Path 406" d="M92.511,20l92.511,82.49H0Z" transform="translate(337.021 1007.448) rotate(180)" fill="#ffe036"/>
    </g>
    <path id="Path_484" data-name="Path 484" d="M32.889,15a6.654,6.654,0,0,1,.654-2.783,7.869,7.869,0,0,1,2.813-3,20.625,20.625,0,0,0,2.49-1.973,2.915,2.915,0,0,0,.869-2.031,2.25,2.25,0,0,0-.5-1.494,2.031,2.031,0,0,0-3.154.352,4.7,4.7,0,0,0-.312,1.738H33.045a6.834,6.834,0,0,1,.655-2.92A4.08,4.08,0,0,1,37.659.771a5.023,5.023,0,0,1,3.578,1.245,4.3,4.3,0,0,1,1.329,3.3,4.456,4.456,0,0,1-.939,2.793A9.349,9.349,0,0,1,39.6,9.912l-1.115.791q-1.047.742-1.433,1.074a3.148,3.148,0,0,0-.649.771h6.182V15ZM47.054,8.057a13.338,13.338,0,0,0,.4,3.735,1.612,1.612,0,0,0,1.641,1.294,1.59,1.59,0,0,0,1.626-1.294,13.82,13.82,0,0,0,.386-3.735,13.666,13.666,0,0,0-.386-3.789,1.576,1.576,0,0,0-1.626-1.23,1.6,1.6,0,0,0-1.641,1.23A13.19,13.19,0,0,0,47.054,8.057ZM49.095.742a4,4,0,0,1,3.794,1.9,11.019,11.019,0,0,1,1.089,5.41,10.96,10.96,0,0,1-1.089,5.4,4.006,4.006,0,0,1-3.794,1.895A4.006,4.006,0,0,1,45.3,13.457a10.96,10.96,0,0,1-1.089-5.4A11.019,11.019,0,0,1,45.3,2.646,4,4,0,0,1,49.095.742ZM59,6.094a1.55,1.55,0,0,0,1.553-1.553,1.553,1.553,0,1,0-3.105,0A1.55,1.55,0,0,0,59,6.094Zm3.633-1.553a3.508,3.508,0,0,1-1.06,2.568,3.637,3.637,0,0,1-5.142,0,3.5,3.5,0,0,1-1.064-2.568,3.5,3.5,0,0,1,1.064-2.568,3.631,3.631,0,0,1,5.137,0A3.5,3.5,0,0,1,62.634,4.541Zm7.412,7.109a1.55,1.55,0,1,0-.454,1.1A1.5,1.5,0,0,0,70.046,11.65Zm2.08,0a3.633,3.633,0,1,1-6.2-2.573,3.635,3.635,0,0,1,6.2,2.573ZM66.941.84h1.478L60.533,15.371H59.021Zm16.24,2.266V6.973h3.237a3.445,3.445,0,0,0,1.447-.234,1.62,1.62,0,0,0,.853-1.621,1.817,1.817,0,0,0-.826-1.758A2.982,2.982,0,0,0,86.5,3.105Zm3.946-2.5A6.271,6.271,0,0,1,89.4.977a3.553,3.553,0,0,1,1.347,1.006,4.477,4.477,0,0,1,.724,1.211,4.036,4.036,0,0,1,.267,1.514,4.313,4.313,0,0,1-.518,2.017,2.893,2.893,0,0,1-1.709,1.4A2.688,2.688,0,0,1,90.92,9.263a4.736,4.736,0,0,1,.415,2.251v.967a7.283,7.283,0,0,0,.079,1.338,1.2,1.2,0,0,0,.555.82V15H88.65q-.137-.479-.2-.771a7.088,7.088,0,0,1-.127-1.24l-.02-1.338a2.719,2.719,0,0,0-.476-1.836,2.425,2.425,0,0,0-1.714-.459H83.181V15H80.241V.605Zm10.7,2.5V6.973h3.237a3.445,3.445,0,0,0,1.447-.234,1.62,1.62,0,0,0,.853-1.621,1.817,1.817,0,0,0-.826-1.758,2.982,2.982,0,0,0-1.391-.254Zm3.946-2.5a6.271,6.271,0,0,1,2.271.371,3.553,3.553,0,0,1,1.347,1.006,4.477,4.477,0,0,1,.724,1.211,4.036,4.036,0,0,1,.267,1.514,4.313,4.313,0,0,1-.518,2.017,2.893,2.893,0,0,1-1.709,1.4,2.688,2.688,0,0,1,1.411,1.138,4.736,4.736,0,0,1,.415,2.251v.967a7.283,7.283,0,0,0,.079,1.338,1.2,1.2,0,0,0,.555.82V15h-3.32q-.137-.479-.2-.771a7.088,7.088,0,0,1-.127-1.24l-.02-1.338a2.719,2.719,0,0,0-.476-1.836,2.425,2.425,0,0,0-1.714-.459H97.824V15H94.885V.605Z" transform="translate(612 740)" fill="#234b6f"/>
    <path id="Path_485" data-name="Path 485" d="M8.068,14V3.233H9.525V7.65h5.618V3.233H16.6V14H15.143V8.939H9.525V14H8.068Zm11.144,0V3.233h5.01a3.986,3.986,0,0,1,2.607.743,2.673,2.673,0,0,1,.894,2.179,2.759,2.759,0,0,1-.93,2.212,3.332,3.332,0,0,1-.505.352l.242.117a2.082,2.082,0,0,1,1.018,1.9L27.6,12.7a1.73,1.73,0,0,0,.125.7.9.9,0,0,0,.425.366v.234H26.362a3.122,3.122,0,0,1-.117-.688q-.058-.557-.088-1.238l-.033-.85a1.968,1.968,0,0,0-.491-1.432,2.179,2.179,0,0,0-1.508-.428H20.669V14H19.211Zm1.458-5.9h3.6a2.1,2.1,0,0,0,1.479-.443,1.852,1.852,0,0,0,.469-1.4,1.718,1.718,0,0,0-.494-1.362,2.342,2.342,0,0,0-1.564-.432H20.669Zm9.51,4.314h1.567V14H30.179Zm0-6.167h1.567V7.833H30.179Zm11.5,8.042a3.027,3.027,0,0,1-2.67-1.406,7.179,7.179,0,0,1-.941-4.006,7.2,7.2,0,0,1,.941-4.01,3.243,3.243,0,0,1,5.35,0,7.22,7.22,0,0,1,.938,4.01,7.2,7.2,0,0,1-.937,4.006A3.031,3.031,0,0,1,41.678,14.286Zm0-1.187a1.788,1.788,0,0,0,1.67-1.055A6.972,6.972,0,0,0,43.9,8.873,7,7,0,0,0,43.348,5.7a1.788,1.788,0,0,0-1.67-1.058A1.768,1.768,0,0,0,40.023,5.7a7.186,7.186,0,0,0-.557,3.175,7.161,7.161,0,0,0,.557,3.171A1.768,1.768,0,0,0,41.678,13.1Zm5.629-.688h1.567V14H47.307Zm9-3.992a3.486,3.486,0,0,1,.776.476A2.577,2.577,0,0,1,58.077,11a3.066,3.066,0,0,1-.989,2.38,4.218,4.218,0,0,1-5.211,0A3.072,3.072,0,0,1,50.892,11a2.6,2.6,0,0,1,.989-2.117,3.336,3.336,0,0,1,.762-.461,4.924,4.924,0,0,1-.505-.322,2.188,2.188,0,0,1-.886-1.816,2.6,2.6,0,0,1,.89-2.054,3.9,3.9,0,0,1,4.68,0,2.6,2.6,0,0,1,.89,2.054A2.182,2.182,0,0,1,56.817,8.1,2.827,2.827,0,0,1,56.312,8.419ZM54.48,7.87a1.924,1.924,0,0,0,1.318-.45,1.474,1.474,0,0,0,.513-1.161A1.485,1.485,0,0,0,55.8,5.094a2.141,2.141,0,0,0-2.637,0,1.485,1.485,0,0,0-.513,1.165,1.485,1.485,0,0,0,.513,1.165A1.934,1.934,0,0,0,54.48,7.87Zm0,1.143a2.211,2.211,0,0,0-1.578.575,1.935,1.935,0,0,0-.612,1.476,1.915,1.915,0,0,0,.612,1.465,2.471,2.471,0,0,0,3.16,0,1.91,1.91,0,0,0,.615-1.465,1.941,1.941,0,0,0-.615-1.479A2.233,2.233,0,0,0,54.48,9.012Zm8.5,5.273a3.027,3.027,0,0,1-2.67-1.406,7.179,7.179,0,0,1-.941-4.006,7.2,7.2,0,0,1,.941-4.01,3.243,3.243,0,0,1,5.35,0,7.22,7.22,0,0,1,.938,4.01,7.2,7.2,0,0,1-.937,4.006A3.031,3.031,0,0,1,62.98,14.286Zm0-1.187a1.788,1.788,0,0,0,1.67-1.055A6.972,6.972,0,0,0,65.2,8.873,7,7,0,0,0,64.65,5.7,1.788,1.788,0,0,0,62.98,4.64,1.768,1.768,0,0,0,61.325,5.7a7.186,7.186,0,0,0-.557,3.175,7.161,7.161,0,0,0,.557,3.171A1.768,1.768,0,0,0,62.98,13.1Zm9.66-3.054a10.2,10.2,0,0,1,.615-3.519A14.625,14.625,0,0,1,75.2,3h.9a16.907,16.907,0,0,0-1.564,3.574,12.488,12.488,0,0,0,0,6.958A16.753,16.753,0,0,0,76.1,17.1h-.9a14.6,14.6,0,0,1-1.948-3.53A10.229,10.229,0,0,1,72.64,10.045Zm8.016,4.241a3.2,3.2,0,0,1-2.23-.751,2.826,2.826,0,0,1-.89-2.069h1.274a1.893,1.893,0,0,0,.56,1.256,1.82,1.82,0,0,0,1.285.443,2,2,0,0,0,1.831-1.326,7.688,7.688,0,0,0,.608-2.6,3.023,3.023,0,0,1-2.439,1.208,3.077,3.077,0,0,1-2.362-.963,3.574,3.574,0,0,1-.9-2.538,3.4,3.4,0,0,1,.974-2.534,3.5,3.5,0,0,1,2.571-.959,3.1,3.1,0,0,1,2.618,1.2,5.548,5.548,0,0,1,.919,3.424,8.773,8.773,0,0,1-1,4.592A3.146,3.146,0,0,1,80.657,14.286Zm2.285-7.339a2.394,2.394,0,0,0-.579-1.663,2.054,2.054,0,0,0-2.988,0A2.394,2.394,0,0,0,78.8,6.947a2.408,2.408,0,0,0,.579,1.666,2.042,2.042,0,0,0,2.988,0A2.394,2.394,0,0,0,82.942,6.947Zm10.03,3.662a3.612,3.612,0,0,1-1.014,2.648,3.5,3.5,0,0,1-2.6,1.029,3.869,3.869,0,0,1-2.542-.791,3,3,0,0,1-1.069-2.183H87.12a1.972,1.972,0,0,0,.709,1.359,2.465,2.465,0,0,0,1.587.48,2,2,0,0,0,1.554-.667,2.456,2.456,0,0,0,.6-1.714,2.4,2.4,0,0,0-.63-1.747,2.27,2.27,0,0,0-1.707-.648,2.446,2.446,0,0,0-1.124.278,2.065,2.065,0,0,0-.824.71l-1.113-.073.762-5.625H92.4V4.947H87.924l-.457,2.886L87.51,7.8a3.193,3.193,0,0,1,1.84-.6A3.709,3.709,0,0,1,92,8.126,3.242,3.242,0,0,1,92.972,10.609ZM96.887,8.7a2.445,2.445,0,0,1-1.794-.758,2.542,2.542,0,0,1,0-3.615,2.5,2.5,0,0,1,3.593,0,2.533,2.533,0,0,1,0,3.615A2.457,2.457,0,0,1,96.887,8.7Zm0-4.08a1.433,1.433,0,0,0-1.058.45,1.5,1.5,0,0,0,0,2.128A1.507,1.507,0,0,0,98.4,6.134a1.463,1.463,0,0,0-.447-1.066A1.445,1.445,0,0,0,96.887,4.618Zm.066,9.631,6.119-10.8h.817l-6.119,10.8Zm6.995-.205a2.445,2.445,0,0,1-1.794-.758,2.542,2.542,0,0,1,0-3.615,2.5,2.5,0,0,1,3.593,0,2.533,2.533,0,0,1,0,3.615A2.457,2.457,0,0,1,103.947,14.044Zm0-4.08a1.433,1.433,0,0,0-1.058.45,1.5,1.5,0,0,0,0,2.128,1.507,1.507,0,0,0,2.567-1.062,1.463,1.463,0,0,0-.447-1.066A1.445,1.445,0,0,0,103.947,9.964ZM20.385,27.038a4.982,4.982,0,0,1-1.527,3.124,4.528,4.528,0,0,1-3.16,1.132,4.446,4.446,0,0,1-3.549-1.534,6.119,6.119,0,0,1-1.322-4.135A6,6,0,0,1,12.2,21.482a4.692,4.692,0,0,1,3.688-1.542,4.646,4.646,0,0,1,3,.938,3.866,3.866,0,0,1,1.406,2.585H18.884a2.567,2.567,0,0,0-.992-1.652,3.318,3.318,0,0,0-2.025-.582,3.14,3.14,0,0,0-2.578,1.19,4.959,4.959,0,0,0-.959,3.2,5.148,5.148,0,0,0,.89,3.259A3.1,3.1,0,0,0,15.8,30a2.929,2.929,0,0,0,2.08-.773,3.9,3.9,0,0,0,1.1-2.194ZM22.513,31V20.233H23.97V31H22.513Zm4.259-1.589h1.567V31H26.772Zm0-6.167h1.567v1.589H26.772Zm11.5,8.042a3.027,3.027,0,0,1-2.67-1.406,7.179,7.179,0,0,1-.941-4.006,7.2,7.2,0,0,1,.941-4.01,3.243,3.243,0,0,1,5.35,0,7.22,7.22,0,0,1,.938,4.01,7.2,7.2,0,0,1-.937,4.006A3.031,3.031,0,0,1,38.271,31.286Zm0-1.187a1.788,1.788,0,0,0,1.67-1.055,6.972,6.972,0,0,0,.549-3.171A7,7,0,0,0,39.94,22.7a1.788,1.788,0,0,0-1.67-1.058A1.768,1.768,0,0,0,36.615,22.7a7.186,7.186,0,0,0-.557,3.175,7.161,7.161,0,0,0,.557,3.171A1.768,1.768,0,0,0,38.271,30.1Zm5.629-.688h1.567V31H43.9ZM48.993,31a18.7,18.7,0,0,1,4.354-9.053H47.469V20.666h7.288v1.172a19.321,19.321,0,0,0-2.783,4.277A19.067,19.067,0,0,0,50.465,31ZM61.5,23.321a1.518,1.518,0,0,0-.568-1.222,2.193,2.193,0,0,0-1.454-.473,1.8,1.8,0,0,0-1.436.575,2.759,2.759,0,0,0-.549,1.718H56.211a3.549,3.549,0,0,1,.868-2.56,3.245,3.245,0,0,1,2.457-.9,3.707,3.707,0,0,1,2.421.751,2.587,2.587,0,0,1,0,3.959,2.637,2.637,0,0,1-.381.264,3.041,3.041,0,0,1,.674.4,2.524,2.524,0,0,1,.989,2.095,3.137,3.137,0,0,1-1.025,2.421,4.377,4.377,0,0,1-5.31.088,3.685,3.685,0,0,1-.981-2.611h1.377a2.809,2.809,0,0,0,.653,1.761,2.713,2.713,0,0,0,3.264-.029,1.847,1.847,0,0,0,.624-1.439,1.875,1.875,0,0,0-.6-1.465,2.117,2.117,0,0,0-1.318-.527q-.374-.022-.707-.022a2.118,2.118,0,0,0-.443.029v-1.15a2.47,2.47,0,0,0,.5.036,5.063,5.063,0,0,0,.667-.044,1.923,1.923,0,0,0,1.033-.418A1.509,1.509,0,0,0,61.5,23.321Zm3.058,2.853h3.677v1.355H64.557Zm8.653,5.112a3.027,3.027,0,0,1-2.67-1.406,7.179,7.179,0,0,1-.941-4.006,7.2,7.2,0,0,1,.941-4.01,3.243,3.243,0,0,1,5.35,0,7.22,7.22,0,0,1,.938,4.01,7.2,7.2,0,0,1-.937,4.006A3.031,3.031,0,0,1,73.21,31.286Zm0-1.187a1.788,1.788,0,0,0,1.67-1.055,6.972,6.972,0,0,0,.549-3.171A7,7,0,0,0,74.88,22.7a1.788,1.788,0,0,0-1.67-1.058A1.768,1.768,0,0,0,71.555,22.7,7.186,7.186,0,0,0,71,25.873a7.161,7.161,0,0,0,.557,3.171A1.768,1.768,0,0,0,73.21,30.1Zm5.629-.688h1.567V31H78.838Zm9-3.992a3.486,3.486,0,0,1,.776.476A2.577,2.577,0,0,1,89.609,28a3.066,3.066,0,0,1-.989,2.38,4.218,4.218,0,0,1-5.211,0A3.072,3.072,0,0,1,82.424,28a2.6,2.6,0,0,1,.989-2.117,3.336,3.336,0,0,1,.762-.461,4.924,4.924,0,0,1-.505-.322,2.188,2.188,0,0,1-.886-1.816,2.6,2.6,0,0,1,.89-2.054,3.9,3.9,0,0,1,4.68,0,2.6,2.6,0,0,1,.89,2.054,2.182,2.182,0,0,1-.894,1.816A2.827,2.827,0,0,1,87.843,25.419Zm-1.831-.549a1.924,1.924,0,0,0,1.318-.45,1.575,1.575,0,0,0,0-2.325,2.141,2.141,0,0,0-2.637,0,1.579,1.579,0,0,0,0,2.329A1.934,1.934,0,0,0,86.012,24.87Zm0,1.143a2.211,2.211,0,0,0-1.578.575,1.935,1.935,0,0,0-.612,1.476,1.915,1.915,0,0,0,.612,1.465,2.471,2.471,0,0,0,3.16,0,1.91,1.91,0,0,0,.615-1.465,1.941,1.941,0,0,0-.615-1.479A2.233,2.233,0,0,0,86.012,26.012ZM92.425,31a18.7,18.7,0,0,1,4.354-9.053H90.9V20.666h7.288v1.172a19.321,19.321,0,0,0-2.783,4.277A19.067,19.067,0,0,0,93.9,31Zm10.389-3.948a10.2,10.2,0,0,1-.615,3.519A14.625,14.625,0,0,1,100.25,34.1h-.9a16.907,16.907,0,0,0,1.564-3.574,12.488,12.488,0,0,0,0-6.958A16.753,16.753,0,0,0,99.35,20h.9a14.6,14.6,0,0,1,1.948,3.53A10.229,10.229,0,0,1,102.814,27.052ZM17.087,44.03a4.093,4.093,0,0,0,.066-1.611,1.446,1.446,0,0,0-1.6-1.3,2.426,2.426,0,0,0-2.168,1.37,6.385,6.385,0,0,0-.667,1.86A3.741,3.741,0,0,0,12.67,45.9a1.445,1.445,0,0,0,1.611,1.216,2.371,2.371,0,0,0,1.7-.773A4.525,4.525,0,0,0,17.087,44.03Zm-4.746-3.838h1.282l-.22,1.04a4.276,4.276,0,0,1,1.04-.828,3.269,3.269,0,0,1,1.663-.439,2.337,2.337,0,0,1,2.043,1.022,3.688,3.688,0,0,1,.308,2.919,5.661,5.661,0,0,1-2.117,3.662,3.643,3.643,0,0,1-2.124.7,2.3,2.3,0,0,1-1.406-.388,2.441,2.441,0,0,1-.623-.754l-.85,4.006H10.019Zm6.559,5h7.588v1.106H18.9Zm0-3.032h7.588v1.106H18.9Zm12.491,6.13a3.027,3.027,0,0,1-2.67-1.406,7.179,7.179,0,0,1-.941-4.006,7.2,7.2,0,0,1,.941-4.01,3.243,3.243,0,0,1,5.35,0,7.22,7.22,0,0,1,.938,4.01,7.2,7.2,0,0,1-.937,4.006A3.031,3.031,0,0,1,31.391,48.286Zm0-1.187a1.788,1.788,0,0,0,1.67-1.055,6.972,6.972,0,0,0,.549-3.171,7,7,0,0,0-.549-3.175,1.788,1.788,0,0,0-1.67-1.058A1.768,1.768,0,0,0,29.736,39.7a7.186,7.186,0,0,0-.557,3.175,7.161,7.161,0,0,0,.557,3.171A1.768,1.768,0,0,0,31.391,47.1Zm5.629-.688h1.567V48H37.019ZM44.2,48.286a3.027,3.027,0,0,1-2.67-1.406,7.179,7.179,0,0,1-.941-4.006,7.2,7.2,0,0,1,.941-4.01,3.243,3.243,0,0,1,5.35,0,7.22,7.22,0,0,1,.938,4.01,7.2,7.2,0,0,1-.937,4.006A3.031,3.031,0,0,1,44.2,48.286Zm0-1.187a1.788,1.788,0,0,0,1.67-1.055,6.972,6.972,0,0,0,.549-3.171,7,7,0,0,0-.549-3.175A1.788,1.788,0,0,0,44.2,38.64,1.768,1.768,0,0,0,42.545,39.7a7.186,7.186,0,0,0-.557,3.175,7.161,7.161,0,0,0,.557,3.171A1.768,1.768,0,0,0,44.2,47.1Zm8.492,1.187a3.027,3.027,0,0,1-2.67-1.406,7.179,7.179,0,0,1-.941-4.006,7.2,7.2,0,0,1,.941-4.01,3.243,3.243,0,0,1,5.35,0,7.22,7.22,0,0,1,.938,4.01,7.2,7.2,0,0,1-.937,4.006A3.031,3.031,0,0,1,52.693,48.286Zm0-1.187a1.788,1.788,0,0,0,1.67-1.055,6.972,6.972,0,0,0,.549-3.171,7,7,0,0,0-.549-3.175,1.788,1.788,0,0,0-1.67-1.058A1.768,1.768,0,0,0,51.038,39.7a7.186,7.186,0,0,0-.557,3.175,7.161,7.161,0,0,0,.557,3.171A1.768,1.768,0,0,0,52.693,47.1Zm8.492,1.187a3.027,3.027,0,0,1-2.67-1.406,7.179,7.179,0,0,1-.941-4.006,7.2,7.2,0,0,1,.941-4.01,3.243,3.243,0,0,1,5.35,0,7.22,7.22,0,0,1,.938,4.01,7.2,7.2,0,0,1-.938,4.006A3.031,3.031,0,0,1,61.185,48.286Zm0-1.187a1.788,1.788,0,0,0,1.67-1.055,6.972,6.972,0,0,0,.549-3.171,7,7,0,0,0-.549-3.175,1.788,1.788,0,0,0-1.67-1.058A1.768,1.768,0,0,0,59.53,39.7a7.186,7.186,0,0,0-.557,3.175,7.161,7.161,0,0,0,.557,3.171A1.768,1.768,0,0,0,61.185,47.1Zm8.492,1.187a3.027,3.027,0,0,1-2.67-1.406,7.179,7.179,0,0,1-.941-4.006,7.2,7.2,0,0,1,.941-4.01,3.243,3.243,0,0,1,5.35,0,7.22,7.22,0,0,1,.938,4.01,7.2,7.2,0,0,1-.937,4.006A3.031,3.031,0,0,1,69.678,48.286Zm0-1.187a1.788,1.788,0,0,0,1.67-1.055,6.972,6.972,0,0,0,.549-3.171,7,7,0,0,0-.549-3.175,1.788,1.788,0,0,0-1.67-1.058A1.768,1.768,0,0,0,68.022,39.7a7.186,7.186,0,0,0-.557,3.175,7.161,7.161,0,0,0,.557,3.171A1.768,1.768,0,0,0,69.678,47.1Zm8.492,1.187a3.027,3.027,0,0,1-2.67-1.406,7.179,7.179,0,0,1-.941-4.006,7.2,7.2,0,0,1,.941-4.01,3.243,3.243,0,0,1,5.35,0,7.22,7.22,0,0,1,.938,4.01,7.2,7.2,0,0,1-.937,4.006A3.031,3.031,0,0,1,78.17,48.286Zm0-1.187a1.788,1.788,0,0,0,1.67-1.055,6.972,6.972,0,0,0,.549-3.171A7,7,0,0,0,79.84,39.7a1.788,1.788,0,0,0-1.67-1.058A1.768,1.768,0,0,0,76.515,39.7a7.186,7.186,0,0,0-.557,3.175,7.161,7.161,0,0,0,.557,3.171A1.768,1.768,0,0,0,78.17,47.1Zm8.492,1.187a3.027,3.027,0,0,1-2.67-1.406,7.179,7.179,0,0,1-.941-4.006,7.2,7.2,0,0,1,.941-4.01,3.243,3.243,0,0,1,5.35,0,7.22,7.22,0,0,1,.938,4.01,7.2,7.2,0,0,1-.937,4.006A3.031,3.031,0,0,1,86.662,48.286Zm0-1.187a1.788,1.788,0,0,0,1.67-1.055,6.972,6.972,0,0,0,.549-3.171,7,7,0,0,0-.549-3.175,1.788,1.788,0,0,0-1.67-1.058A1.768,1.768,0,0,0,85.007,39.7a7.186,7.186,0,0,0-.557,3.175,7.161,7.161,0,0,0,.557,3.171A1.768,1.768,0,0,0,86.662,47.1ZM98.6,40.559a2.982,2.982,0,0,1-.6,1.915,7.667,7.667,0,0,1-2.245,1.659,8.367,8.367,0,0,0-2.439,1.794,3.287,3.287,0,0,0-.447.791H98.6V48H91.375v0a4.284,4.284,0,0,1,.828-2.72,10.357,10.357,0,0,1,3.105-2.31,5.138,5.138,0,0,0,1.509-1.13,2.076,2.076,0,0,0,.4-1.321,1.764,1.764,0,0,0-.6-1.379,2.224,2.224,0,0,0-1.538-.536,1.9,1.9,0,0,0-1.542.672,3.045,3.045,0,0,0-.6,1.906H91.661a3.676,3.676,0,0,1,.93-2.736,3.545,3.545,0,0,1,2.673-.992,3.388,3.388,0,0,1,2.4.872A2.911,2.911,0,0,1,98.6,40.559ZM101.521,40a2.032,2.032,0,0,1-1.363-.453,1.614,1.614,0,0,1,0-2.373,2.008,2.008,0,0,1,1.365-.451h2.307v7.771H103.2V37.254h-1.068v7.237h-.615Z" transform="translate(625 778)" fill="#234b6f"/>
  </g>
</svg>
