<svg xmlns="http://www.w3.org/2000/svg" width="270" height="373" viewBox="0 0 270 373">
  <g id="_3" data-name="3" transform="translate(-945 -623)">
    <rect id="Rectangle_262" data-name="Rectangle 262" width="270" height="373" rx="14" transform="translate(945 623)" fill="#234b6f"/>
    <path id="Path_490" data-name="Path 490" d="M30.12,7.154H22.659v3.057H29.5v2.5H22.659v3.7h7.813V19H19.72V4.605h10.4Zm3-2.549h3.153L41.99,14.642V4.605h2.8V19H41.785L35.925,8.787V19h-2.8Zm25.151,0V7.154H53.967V19H50.94V7.154H46.614V4.605Zm4.966,2.5v3.867h3.237a3.445,3.445,0,0,0,1.447-.234,1.62,1.62,0,0,0,.853-1.621,1.817,1.817,0,0,0-.826-1.758,2.982,2.982,0,0,0-1.391-.254Zm3.946-2.5a6.271,6.271,0,0,1,2.271.371A3.553,3.553,0,0,1,70.8,5.982a4.477,4.477,0,0,1,.724,1.211,4.036,4.036,0,0,1,.267,1.514,4.313,4.313,0,0,1-.518,2.017,2.893,2.893,0,0,1-1.709,1.4,2.688,2.688,0,0,1,1.411,1.138,4.736,4.736,0,0,1,.415,2.251v.967a7.283,7.283,0,0,0,.079,1.338,1.2,1.2,0,0,0,.555.82V19h-3.32q-.137-.479-.2-.771a7.088,7.088,0,0,1-.127-1.24l-.02-1.338a2.719,2.719,0,0,0-.476-1.836,2.425,2.425,0,0,0-1.714-.459H63.24V19H60.3V4.605ZM85.363,7.154H77.9v3.057h6.836v2.5H77.9v3.7h7.813V19H74.963V4.605h10.4Zm5.22,7.4a2.92,2.92,0,0,0,.548,1.475,3.193,3.193,0,0,0,2.563.889,5.513,5.513,0,0,0,1.765-.234,1.675,1.675,0,0,0,1.286-1.67,1.23,1.23,0,0,0-.63-1.1,6.835,6.835,0,0,0-2-.674L92.558,12.9a9.709,9.709,0,0,1-3.157-1.1,3.51,3.51,0,0,1-1.455-3.115A4.137,4.137,0,0,1,89.37,5.465a6.068,6.068,0,0,1,4.182-1.279,6.412,6.412,0,0,1,3.93,1.206,4.288,4.288,0,0,1,1.705,3.5H96.3a2.061,2.061,0,0,0-1.161-1.846,3.978,3.978,0,0,0-1.792-.361,3.411,3.411,0,0,0-1.9.469,1.483,1.483,0,0,0-.711,1.309,1.235,1.235,0,0,0,.7,1.152,8.712,8.712,0,0,0,1.912.6l2.526.6a6.425,6.425,0,0,1,2.49,1.045,3.522,3.522,0,0,1,1.287,2.939,4.13,4.13,0,0,1-1.525,3.276,6.436,6.436,0,0,1-4.309,1.3,7.042,7.042,0,0,1-4.471-1.284,4.249,4.249,0,0,1-1.629-3.53Zm21.831-9.951V7.154h-4.307V19H105.08V7.154h-4.326V4.605Zm8.325,12.246a3.436,3.436,0,0,0,2.837-1.318,5.891,5.891,0,0,0,1.05-3.75,5.9,5.9,0,0,0-1.05-3.745,3.431,3.431,0,0,0-2.837-1.323,3.477,3.477,0,0,0-2.852,1.318,5.833,5.833,0,0,0-1.064,3.75,5.833,5.833,0,0,0,1.064,3.75A3.477,3.477,0,0,0,120.739,16.852Zm6.895-5.068a7.785,7.785,0,0,1-2.178,5.938,7.463,7.463,0,0,1-9.434,0,7.765,7.765,0,0,1-2.187-5.937q0-3.955,2.188-5.937a7.463,7.463,0,0,1,9.434,0Q127.633,7.828,127.633,11.783Zm5.272-8.345a4.362,4.362,0,0,1,3.17,1.267,4.178,4.178,0,0,1,1.3,3.107,4.176,4.176,0,0,1-1.293,3.1,4.6,4.6,0,0,1-6.34,0,4.176,4.176,0,0,1-1.293-3.1,4.178,4.178,0,0,1,1.3-3.107A4.355,4.355,0,0,1,132.905,3.438Zm3.572,4.375a3.544,3.544,0,0,0-1.034-2.58,3.576,3.576,0,0,0-5.07,0,3.544,3.544,0,0,0-1.034,2.58,3.535,3.535,0,0,0,1.034,2.578,3.579,3.579,0,0,0,5.067,0A3.53,3.53,0,0,0,136.477,7.813Zm-5.5,2.523V5.284H133a2.042,2.042,0,0,1,1.285.362,1.2,1.2,0,0,1,.464,1.005,1.369,1.369,0,0,1-.467,1.1,1.7,1.7,0,0,1-.894.37l1.453,2.216h-.92l-1.3-2.187-.842.006v2.182h-.8Zm.8-2.854h1.077a1.344,1.344,0,0,0,.817-.2.741.741,0,0,0,.259-.627.621.621,0,0,0-.259-.553,1.48,1.48,0,0,0-.817-.177h-1.077Zm14.6,7.728a2.688,2.688,0,0,0,.633,1.4,1.791,1.791,0,0,0,1.364.493,1.839,1.839,0,0,0,1.573-.728,2.986,2.986,0,0,0,.541-1.831,3.187,3.187,0,0,0-.507-1.831,1.773,1.773,0,0,0-1.578-.747,2.709,2.709,0,0,0-.877.127,1.744,1.744,0,0,0-.984.869l-2.495-.117.994-7.822h7.791V7.389h-5.783l-.507,3.1a5.806,5.806,0,0,1,1-.557,4.248,4.248,0,0,1,1.473-.225,4.272,4.272,0,0,1,4.369,4.619,5.4,5.4,0,0,1-1.259,3.506,4.574,4.574,0,0,1-3.766,1.543,5,5,0,0,1-3.317-1.084,4.213,4.213,0,0,1-1.444-3.076Zm11.323,0a2.688,2.688,0,0,0,.633,1.4,1.791,1.791,0,0,0,1.364.493,1.839,1.839,0,0,0,1.573-.728,2.986,2.986,0,0,0,.541-1.831,3.187,3.187,0,0,0-.507-1.831,1.773,1.773,0,0,0-1.578-.747,2.709,2.709,0,0,0-.877.127,1.744,1.744,0,0,0-.984.869l-2.495-.117.994-7.822h7.791V7.389H158.37l-.507,3.1a5.806,5.806,0,0,1,1-.557A4.248,4.248,0,0,1,160.34,9.7a4.272,4.272,0,0,1,4.369,4.619,5.4,5.4,0,0,1-1.259,3.506,4.574,4.574,0,0,1-3.766,1.543,5,5,0,0,1-3.317-1.084,4.213,4.213,0,0,1-1.444-3.076Zm11.44-.322a2.274,2.274,0,0,0,.542,1.621,2.238,2.238,0,0,0,3,0,2.274,2.274,0,0,0,.542-1.621,2.254,2.254,0,0,0-.552-1.646,2.256,2.256,0,0,0-2.979,0A2.254,2.254,0,0,0,169.138,14.889Zm-2.891.186a4.359,4.359,0,0,1,.539-2.158,3.419,3.419,0,0,1,1.577-1.455,3.308,3.308,0,0,1-1.338-1.479,4.132,4.132,0,0,1-.309-1.489,3.472,3.472,0,0,1,1.165-2.632,5.51,5.51,0,0,1,6.577,0,3.472,3.472,0,0,1,1.165,2.632,4.145,4.145,0,0,1-.308,1.489,2.844,2.844,0,0,1-1.333,1.382,3.934,3.934,0,0,1,1.58,1.553,4.416,4.416,0,0,1,.53,2.158,4.036,4.036,0,0,1-1.325,3.042,5.166,5.166,0,0,1-3.7,1.255,4.8,4.8,0,0,1-3.6-1.255A4.2,4.2,0,0,1,166.247,15.074Zm3.135-6.27a1.731,1.731,0,0,0,.475,1.26,1.752,1.752,0,0,0,1.317.488,1.733,1.733,0,0,0,1.317-.488,1.752,1.752,0,0,0,.465-1.26,1.794,1.794,0,0,0-.465-1.313,1.763,1.763,0,0,0-1.317-.474,1.783,1.783,0,0,0-1.317.474A1.772,1.772,0,0,0,169.382,8.8Zm12.145-4.639h2.316L178.239,19h-2.3Zm11.731,11.787h-1.6V19h-2.725V15.953h-5.605V13.521l5.205-8.594h3.125v8.848h1.6Zm-4.326-2.178v-6.1l-3.534,6.1Zm6.577-4.541V7.34a12.274,12.274,0,0,0,1.841-.176,2.6,2.6,0,0,0,1.364-.742,2.446,2.446,0,0,0,.546-1.016,2.337,2.337,0,0,0,.107-.566h2.324V19h-2.852V9.234Zm13.354,5.654a2.274,2.274,0,0,0,.542,1.621,2.238,2.238,0,0,0,3,0,2.274,2.274,0,0,0,.542-1.621,2.254,2.254,0,0,0-.552-1.646,2.256,2.256,0,0,0-2.979,0A2.254,2.254,0,0,0,208.864,14.889Zm-2.891.186a4.359,4.359,0,0,1,.539-2.158,3.419,3.419,0,0,1,1.577-1.455,3.308,3.308,0,0,1-1.338-1.479,4.132,4.132,0,0,1-.309-1.489,3.472,3.472,0,0,1,1.165-2.632,5.51,5.51,0,0,1,6.577,0,3.472,3.472,0,0,1,1.165,2.632,4.145,4.145,0,0,1-.308,1.489,2.844,2.844,0,0,1-1.333,1.382,3.934,3.934,0,0,1,1.58,1.553,4.416,4.416,0,0,1,.53,2.158,4.036,4.036,0,0,1-1.325,3.042,5.166,5.166,0,0,1-3.7,1.255,4.8,4.8,0,0,1-3.6-1.255A4.2,4.2,0,0,1,205.973,15.074Zm3.135-6.27a1.731,1.731,0,0,0,.475,1.26,1.752,1.752,0,0,0,1.317.488,1.733,1.733,0,0,0,1.317-.488,1.752,1.752,0,0,0,.465-1.26,1.794,1.794,0,0,0-.465-1.313,1.763,1.763,0,0,0-1.317-.474,1.783,1.783,0,0,0-1.317.474A1.772,1.772,0,0,0,209.108,8.8Zm18.208-1.6A17.584,17.584,0,0,0,225.574,9.4a19.363,19.363,0,0,0-1.869,3.257,19.366,19.366,0,0,0-1.076,3.223A13.357,13.357,0,0,0,222.15,19h-2.891a17.009,17.009,0,0,1,2.5-7.92,18.7,18.7,0,0,1,2.57-3.555h-7.055l.039-2.5h10ZM46.588,29.154H39.127v3.057h6.836v2.5H39.127v3.7H46.94V41H36.188V26.605h10.4Zm8.722.947A4.08,4.08,0,0,1,58,30.966a3.522,3.522,0,0,1,1.045,2.866V41H56.192V34.525a2.974,2.974,0,0,0-.223-1.289,1.566,1.566,0,0,0-1.551-.82,1.923,1.923,0,0,0-1.929,1.2,4.153,4.153,0,0,0-.271,1.621V41H49.435V30.375h2.7v1.553a4.718,4.718,0,0,1,1.011-1.182A3.5,3.5,0,0,1,55.31,30.1Zm12.44,5.723a3.084,3.084,0,0,1-.54.269,4.561,4.561,0,0,1-.747.19l-.634.117a4.166,4.166,0,0,0-1.279.381,1.271,1.271,0,0,0-.658,1.182,1.235,1.235,0,0,0,.4,1.03,1.527,1.527,0,0,0,.977.317,2.909,2.909,0,0,0,1.681-.527,2.233,2.233,0,0,0,.8-1.924Zm-1.7-1.3a4.4,4.4,0,0,0,1.112-.244.837.837,0,0,0,.6-.791.935.935,0,0,0-.46-.9,2.909,2.909,0,0,0-1.351-.249,1.774,1.774,0,0,0-1.416.488,2.015,2.015,0,0,0-.4.977H61.451a4.073,4.073,0,0,1,.785-2.295Q63.344,30.1,66.041,30.1a6.786,6.786,0,0,1,3.119.693,2.659,2.659,0,0,1,1.363,2.617v4.883q0,.508.02,1.23a1.547,1.547,0,0,0,.166.742,1,1,0,0,0,.41.322V41H68.092a3.1,3.1,0,0,1-.176-.605q-.049-.283-.078-.645A5.745,5.745,0,0,1,66.5,40.814a4.037,4.037,0,0,1-2.043.518,3.525,3.525,0,0,1-2.4-.825,2.935,2.935,0,0,1-.948-2.339,3.031,3.031,0,0,1,1.525-2.842,6.809,6.809,0,0,1,2.46-.684ZM76,41H73.213V26.605H76Zm8.833-5.176a3.084,3.084,0,0,1-.54.269,4.561,4.561,0,0,1-.747.19l-.634.117a4.166,4.166,0,0,0-1.279.381,1.271,1.271,0,0,0-.658,1.182,1.235,1.235,0,0,0,.4,1.03,1.527,1.527,0,0,0,.977.317,2.909,2.909,0,0,0,1.681-.527,2.233,2.233,0,0,0,.8-1.924Zm-1.7-1.3a4.4,4.4,0,0,0,1.112-.244.837.837,0,0,0,.6-.791.935.935,0,0,0-.46-.9,2.909,2.909,0,0,0-1.351-.249,1.774,1.774,0,0,0-1.416.488,2.015,2.015,0,0,0-.4.977H78.531a4.073,4.073,0,0,1,.785-2.295Q80.424,30.1,83.121,30.1a6.786,6.786,0,0,1,3.119.693A2.659,2.659,0,0,1,87.6,33.412v4.883q0,.508.02,1.23a1.547,1.547,0,0,0,.166.742,1,1,0,0,0,.41.322V41H85.171A3.1,3.1,0,0,1,85,40.395q-.049-.283-.078-.645a5.745,5.745,0,0,1-1.336,1.064,4.037,4.037,0,0,1-2.043.518,3.525,3.525,0,0,1-2.4-.825,2.935,2.935,0,0,1-.948-2.339,3.031,3.031,0,0,1,1.525-2.842,6.809,6.809,0,0,1,2.46-.684Zm14.49,1.152A4.156,4.156,0,0,0,97.05,33.5a1.98,1.98,0,0,0-1.84-.947,2.093,2.093,0,0,0-2.1,1.436,5.393,5.393,0,0,0-.3,1.934,3.069,3.069,0,0,0,1,2.607,2.286,2.286,0,0,0,1.4.439A2.037,2.037,0,0,0,97,38.07,4.157,4.157,0,0,0,97.617,35.678Zm-1.611-5.557A4.209,4.209,0,0,1,99.186,31.5a5.674,5.674,0,0,1,1.3,4.043,6.384,6.384,0,0,1-1.273,4.287A4.132,4.132,0,0,1,95.938,41.3a3.437,3.437,0,0,1-2.123-.635,4.1,4.1,0,0,1-.9-1.025v5.547H90.156V30.355h2.666v1.572a4.478,4.478,0,0,1,.963-1.094A3.554,3.554,0,0,1,96.007,30.121Zm12.426-.02q.078,0,.132,0t.239.015v2.852q-.264-.029-.469-.039t-.332-.01a2.308,2.308,0,0,0-2.256,1.094,4.255,4.255,0,0,0-.322,1.895V41h-2.8V30.355h2.656v1.855a5.884,5.884,0,0,1,1.123-1.455A3.057,3.057,0,0,1,108.433,30.1Zm5.063-1.016h-2.822V26.518H113.5Zm-2.822,1.27H113.5V41h-2.822ZM119.233,41H116.45V26.605h2.783Zm10.791-4.482a2.777,2.777,0,0,0,.615,1.865,1.963,1.963,0,0,0,1.563.723,1.735,1.735,0,0,0,1.46-.7,2.907,2.907,0,0,0,.532-1.812,2.711,2.711,0,0,0-.605-1.9,1.938,1.938,0,0,0-1.484-.659,1.982,1.982,0,0,0-1.26.43A2.432,2.432,0,0,0,130.024,36.518ZM133.94,30.4a1.42,1.42,0,0,0-.264-.752,1.528,1.528,0,0,0-1.357-.664,2.007,2.007,0,0,0-1.934,1.523,9.454,9.454,0,0,0-.43,2.48,3.124,3.124,0,0,1,1.2-.9,4.4,4.4,0,0,1,4.653,1,4.578,4.578,0,0,1,1.206,3.271,5.522,5.522,0,0,1-1.182,3.5,4.369,4.369,0,0,1-3.672,1.514,4.226,4.226,0,0,1-3.945-2.236,9.119,9.119,0,0,1-.986-4.512,20.516,20.516,0,0,1,.137-2.637,8.063,8.063,0,0,1,.947-3.008,4.847,4.847,0,0,1,1.587-1.65,4.28,4.28,0,0,1,2.349-.625,4.649,4.649,0,0,1,3.145,1.011,3.843,3.843,0,0,1,1.318,2.69Zm4.585,1.416a5.194,5.194,0,0,1,1.313-3.687,4.853,4.853,0,0,1,7.847,1.45,11.141,11.141,0,0,1,.684,4.268,12.144,12.144,0,0,1-.654,4.287,4.581,4.581,0,0,1-4.59,3.271,4.681,4.681,0,0,1-2.861-.942,3.715,3.715,0,0,1-1.455-2.749h2.773a1.676,1.676,0,0,0,.527,1.016,1.633,1.633,0,0,0,1.143.391,1.986,1.986,0,0,0,1.934-1.523,8.888,8.888,0,0,0,.381-2.451,3.01,3.01,0,0,1-.811.732,3.679,3.679,0,0,1-1.924.469,4.375,4.375,0,0,1-3-1.167A4.272,4.272,0,0,1,138.524,31.82Zm4.912,2.266a1.946,1.946,0,0,0,1.084-.332,2.3,2.3,0,0,0,.947-2.1,2.968,2.968,0,0,0-.562-1.9,1.862,1.862,0,0,0-1.538-.7,1.911,1.911,0,0,0-1.221.4,2.531,2.531,0,0,0-.8,2.119,2.948,2.948,0,0,0,.513,1.89A1.914,1.914,0,0,0,143.437,34.086Zm9.077,2.568a3.19,3.19,0,0,0,.273,1.406,1.868,1.868,0,0,0,1.841,1.025,2.038,2.038,0,0,0,1.427-.562,2.089,2.089,0,0,0,.609-1.616,1.821,1.821,0,0,0-1.129-1.865,5.716,5.716,0,0,0-2.025-.264V32.787a5.235,5.235,0,0,0,1.888-.264,1.63,1.63,0,0,0,.925-1.66,1.858,1.858,0,0,0-.472-1.318,1.726,1.726,0,0,0-1.329-.508,1.681,1.681,0,0,0-1.446.625,2.657,2.657,0,0,0-.443,1.67h-2.6a7,7,0,0,1,.361-2,4.507,4.507,0,0,1,1.073-1.533,3.737,3.737,0,0,1,1.3-.762,5.609,5.609,0,0,1,1.844-.264,4.9,4.9,0,0,1,3.273,1.05,3.5,3.5,0,0,1,1.244,2.817,3.115,3.115,0,0,1-.742,2.109,2.534,2.534,0,0,1-.977.732,2.009,2.009,0,0,1,1.094.654,3.494,3.494,0,0,1,1.064,2.7,4.542,4.542,0,0,1-1.244,3.159,4.739,4.739,0,0,1-3.683,1.362q-3,0-4.175-1.963a5.831,5.831,0,0,1-.683-2.734Zm12.546-10.488h2.316L161.771,41h-2.3ZM176.79,37.953h-1.6V41h-2.725V37.953h-5.605V35.521l5.205-8.594h3.125v8.848h1.6Zm-4.326-2.178v-6.1l-3.534,6.1ZM178.279,41a6.654,6.654,0,0,1,.654-2.783,7.869,7.869,0,0,1,2.813-3,20.626,20.626,0,0,0,2.49-1.973,2.915,2.915,0,0,0,.869-2.031,2.25,2.25,0,0,0-.5-1.494,2.031,2.031,0,0,0-3.154.352,4.7,4.7,0,0,0-.312,1.738h-2.705a6.834,6.834,0,0,1,.655-2.92,4.08,4.08,0,0,1,3.959-2.119,5.023,5.023,0,0,1,3.578,1.245,4.3,4.3,0,0,1,1.329,3.3,4.456,4.456,0,0,1-.939,2.793,9.349,9.349,0,0,1-2.025,1.807l-1.115.791q-1.047.742-1.433,1.074a3.148,3.148,0,0,0-.649.771h6.182V41Zm12.085-9.766V29.34a12.274,12.274,0,0,0,1.841-.176,2.6,2.6,0,0,0,1.364-.742,2.446,2.446,0,0,0,.546-1.016,2.337,2.337,0,0,0,.107-.566h2.324V41h-2.852V31.234ZM200.926,41a6.654,6.654,0,0,1,.654-2.783,7.869,7.869,0,0,1,2.813-3,20.626,20.626,0,0,0,2.49-1.973,2.915,2.915,0,0,0,.869-2.031,2.25,2.25,0,0,0-.5-1.494,2.031,2.031,0,0,0-3.154.352,4.7,4.7,0,0,0-.312,1.738h-2.705a6.834,6.834,0,0,1,.655-2.92,4.08,4.08,0,0,1,3.959-2.119,5.023,5.023,0,0,1,3.578,1.245,4.3,4.3,0,0,1,1.329,3.3,4.456,4.456,0,0,1-.939,2.793,9.349,9.349,0,0,1-2.025,1.807l-1.115.791q-1.047.742-1.433,1.074a3.148,3.148,0,0,0-.649.771h6.182V41ZM46.82,53.234V51.34a12.274,12.274,0,0,0,1.841-.176,2.6,2.6,0,0,0,1.364-.742,2.446,2.446,0,0,0,.546-1.016,2.337,2.337,0,0,0,.107-.566H53V63H50.15V53.234Zm13.2,5.42a3.19,3.19,0,0,0,.273,1.406,1.868,1.868,0,0,0,1.841,1.025,2.038,2.038,0,0,0,1.427-.562,2.089,2.089,0,0,0,.609-1.616,1.821,1.821,0,0,0-1.129-1.865,5.716,5.716,0,0,0-2.025-.264V54.787a5.235,5.235,0,0,0,1.888-.264,1.63,1.63,0,0,0,.925-1.66,1.858,1.858,0,0,0-.472-1.318,1.726,1.726,0,0,0-1.329-.508,1.681,1.681,0,0,0-1.446.625,2.657,2.657,0,0,0-.443,1.67h-2.6a7,7,0,0,1,.361-2A4.507,4.507,0,0,1,58.971,49.8a3.737,3.737,0,0,1,1.3-.762,5.609,5.609,0,0,1,1.844-.264,4.9,4.9,0,0,1,3.273,1.05,3.5,3.5,0,0,1,1.244,2.817,3.115,3.115,0,0,1-.742,2.109,2.534,2.534,0,0,1-.977.732A2.009,2.009,0,0,1,66,56.135a3.494,3.494,0,0,1,1.064,2.7,4.542,4.542,0,0,1-1.244,3.159,4.739,4.739,0,0,1-3.683,1.362q-3,0-4.175-1.963a5.831,5.831,0,0,1-.683-2.734Zm9.311,1.426h2.959V63H69.329ZM77.1,58.654a3.19,3.19,0,0,0,.273,1.406,1.868,1.868,0,0,0,1.841,1.025,2.038,2.038,0,0,0,1.427-.562,2.089,2.089,0,0,0,.609-1.616,1.821,1.821,0,0,0-1.129-1.865,5.716,5.716,0,0,0-2.025-.264V54.787a5.235,5.235,0,0,0,1.888-.264,1.63,1.63,0,0,0,.925-1.66,1.858,1.858,0,0,0-.472-1.318,1.726,1.726,0,0,0-1.329-.508,1.681,1.681,0,0,0-1.446.625,2.657,2.657,0,0,0-.443,1.67h-2.6a7,7,0,0,1,.361-2A4.507,4.507,0,0,1,76.051,49.8a3.737,3.737,0,0,1,1.3-.762,5.609,5.609,0,0,1,1.844-.264,4.9,4.9,0,0,1,3.273,1.05,3.5,3.5,0,0,1,1.244,2.817,3.115,3.115,0,0,1-.742,2.109,2.534,2.534,0,0,1-.977.732,2.009,2.009,0,0,1,1.094.654,3.494,3.494,0,0,1,1.064,2.7A4.542,4.542,0,0,1,82.9,61.989a4.739,4.739,0,0,1-3.683,1.362q-3,0-4.175-1.963a5.831,5.831,0,0,1-.683-2.734Zm12.153-4.561a1.55,1.55,0,1,0-1.1-.454A1.5,1.5,0,0,0,89.251,54.094Zm3.633-1.553a3.634,3.634,0,1,1-1.064-2.568A3.508,3.508,0,0,1,92.883,52.541ZM100.3,59.65a1.55,1.55,0,1,0-.454,1.1A1.5,1.5,0,0,0,100.3,59.65Zm2.08,0a3.634,3.634,0,1,1-1.064-2.568A3.5,3.5,0,0,1,102.376,59.65ZM97.19,48.84h1.478L90.782,63.371H89.27Zm19.565,3.516h2.988L115.9,63h-2.935l-3.817-10.645h3.125l2.217,7.852Zm6.924,7.246a1.854,1.854,0,0,0,.383,1.055,2.6,2.6,0,0,0,1.923.557,2.944,2.944,0,0,0,1.31-.244.818.818,0,0,0,.094-1.445,15.97,15.97,0,0,0-2.912-.84,6.049,6.049,0,0,1-2.556-1.123,2.435,2.435,0,0,1-.742-1.914,3.317,3.317,0,0,1,1.16-2.534,4.664,4.664,0,0,1,3.264-1.06,6,6,0,0,1,3.254.8A3.407,3.407,0,0,1,130.3,55.6h-2.783a1.644,1.644,0,0,0-.3-.85,1.913,1.913,0,0,0-1.567-.566,2.256,2.256,0,0,0-1.3.283.815.815,0,0,0-.387.664.726.726,0,0,0,.411.693,17.829,17.829,0,0,0,2.906.771,5.33,5.33,0,0,1,2.493,1.182,2.683,2.683,0,0,1,.82,2,3.232,3.232,0,0,1-1.179,2.583,7.086,7.086,0,0,1-7.358-.059,3.444,3.444,0,0,1-1.2-2.7Zm9.116.479h2.959V63h-2.959Zm11.65-6.846V51.34a12.274,12.274,0,0,0,1.841-.176,2.6,2.6,0,0,0,1.364-.742,2.446,2.446,0,0,0,.546-1.016,2.337,2.337,0,0,0,.107-.566h2.324V63h-2.852V53.234ZM157.8,58.518a2.777,2.777,0,0,0,.615,1.865,1.963,1.963,0,0,0,1.563.723,1.735,1.735,0,0,0,1.46-.7,2.907,2.907,0,0,0,.532-1.812,2.711,2.711,0,0,0-.605-1.9,1.938,1.938,0,0,0-1.484-.659,1.982,1.982,0,0,0-1.26.43A2.432,2.432,0,0,0,157.8,58.518Zm3.916-6.113a1.42,1.42,0,0,0-.264-.752,1.528,1.528,0,0,0-1.357-.664,2.007,2.007,0,0,0-1.934,1.523,9.454,9.454,0,0,0-.43,2.48,3.124,3.124,0,0,1,1.2-.9,4.4,4.4,0,0,1,4.653,1,4.578,4.578,0,0,1,1.206,3.271,5.522,5.522,0,0,1-1.182,3.5,4.369,4.369,0,0,1-3.672,1.514,4.226,4.226,0,0,1-3.945-2.236,9.119,9.119,0,0,1-.986-4.512,20.517,20.517,0,0,1,.137-2.637,8.063,8.063,0,0,1,.947-3.008,4.847,4.847,0,0,1,1.587-1.65,4.28,4.28,0,0,1,2.349-.625,4.649,4.649,0,0,1,3.145,1.011,3.843,3.843,0,0,1,1.318,2.69Zm5.239,7.676h2.959V63h-2.959Zm7.807-.869a2.688,2.688,0,0,0,.633,1.4,1.791,1.791,0,0,0,1.364.493,1.839,1.839,0,0,0,1.573-.728,2.986,2.986,0,0,0,.541-1.831,3.187,3.187,0,0,0-.507-1.831,1.773,1.773,0,0,0-1.578-.747,2.709,2.709,0,0,0-.877.127,1.744,1.744,0,0,0-.984.869l-2.495-.117.994-7.822h7.791v2.363h-5.783l-.507,3.1a5.806,5.806,0,0,1,1-.557A4.248,4.248,0,0,1,177.4,53.7a4.272,4.272,0,0,1,4.369,4.619,5.4,5.4,0,0,1-1.259,3.506,4.574,4.574,0,0,1-3.766,1.543,5,5,0,0,1-3.317-1.084,4.213,4.213,0,0,1-1.444-3.076Zm12.114-5.117a1.55,1.55,0,1,0-1.1-.454A1.5,1.5,0,0,0,186.876,54.094Zm3.633-1.553a3.634,3.634,0,1,1-1.064-2.568A3.508,3.508,0,0,1,190.508,52.541Zm7.412,7.109a1.55,1.55,0,1,0-.454,1.1A1.5,1.5,0,0,0,197.921,59.65Zm2.08,0a3.634,3.634,0,1,1-1.064-2.568A3.5,3.5,0,0,1,200,59.65ZM194.815,48.84h1.478l-7.887,14.531H186.9Z" transform="translate(957 905)" fill="#fff"/>
    <path id="Path_487" data-name="Path 487" d="M57.92,16.088q0-5.277,2.8-8.135a8.3,8.3,0,0,1,6.195-2.488q5.031,0,7.358,3.336a7.27,7.27,0,0,1,1.38,3.76H71.442a5.736,5.736,0,0,0-1.031-2.187,4.572,4.572,0,0,0-6.884.54,9.047,9.047,0,0,0-1.3,5.243A7.942,7.942,0,0,0,63.6,21.235a4.3,4.3,0,0,0,3.484,1.688,3.947,3.947,0,0,0,3.3-1.449,6.361,6.361,0,0,0,1.043-2.338h4.184A9.078,9.078,0,0,1,72.846,24.5a8.05,8.05,0,0,1-5.7,2.064,8.555,8.555,0,0,1-6.763-2.789A11.242,11.242,0,0,1,57.92,16.088ZM91.088,5.848h4.375L88.593,26H84.614L77.8,5.848h4.5l4.375,15.3Zm20.4,4.895a4.806,4.806,0,0,1,2.406.595,4.733,4.733,0,0,1,1.709,1.647V5.875h3.951V26h-3.787V23.936a5.5,5.5,0,0,1-1.9,1.928,5.335,5.335,0,0,1-2.652.6,5.538,5.538,0,0,1-4.4-2.112,8.111,8.111,0,0,1-1.784-5.421,9.33,9.33,0,0,1,1.757-6A5.716,5.716,0,0,1,111.493,10.742Zm.848,12.441a2.877,2.877,0,0,0,2.516-1.23,5.436,5.436,0,0,0,.861-3.186,4.886,4.886,0,0,0-1.381-3.91,2.972,2.972,0,0,0-1.969-.711,2.737,2.737,0,0,0-2.509,1.292,5.986,5.986,0,0,0-.8,3.206,5.932,5.932,0,0,0,.813,3.3A2.752,2.752,0,0,0,112.34,23.184Zm17.247-9.27a3.09,3.09,0,0,0-2.326.851,4.05,4.05,0,0,0-1.038,2.307h6.713a3.251,3.251,0,0,0-1.038-2.355A3.415,3.415,0,0,0,129.588,13.914Zm0-3.213a8.484,8.484,0,0,1,3.5.7,6.06,6.06,0,0,1,2.575,2.2,7.324,7.324,0,0,1,1.187,3.081,19.017,19.017,0,0,1,.128,2.958H126.128a3.576,3.576,0,0,0,1.558,3.145,3.959,3.959,0,0,0,2.148.561,3.026,3.026,0,0,0,2.966-1.709h3.978a4.865,4.865,0,0,1-1.445,2.693,7.242,7.242,0,0,1-5.607,2.174,8.123,8.123,0,0,1-5.249-1.834q-2.274-1.834-2.274-5.966a8.069,8.069,0,0,1,2.053-5.939A7.184,7.184,0,0,1,129.586,10.7Zm17.931,8.053a4.318,4.318,0,0,1-.755.376,6.386,6.386,0,0,1-1.046.267l-.887.164a5.832,5.832,0,0,0-1.791.533,1.78,1.78,0,0,0-.921,1.654,1.729,1.729,0,0,0,.562,1.442,2.137,2.137,0,0,0,1.367.444A4.072,4.072,0,0,0,146.4,22.9a3.127,3.127,0,0,0,1.117-2.693Zm-2.383-1.818a6.164,6.164,0,0,0,1.556-.342,1.172,1.172,0,0,0,.84-1.107,1.309,1.309,0,0,0-.644-1.265A4.073,4.073,0,0,0,145,13.873a2.484,2.484,0,0,0-1.982.684,2.821,2.821,0,0,0-.554,1.367H138.7a5.7,5.7,0,0,1,1.1-3.213q1.552-1.969,5.328-1.969a9.5,9.5,0,0,1,4.366.971,3.723,3.723,0,0,1,1.909,3.664v6.836q0,.711.027,1.723a2.166,2.166,0,0,0,.232,1.039,1.4,1.4,0,0,0,.574.451V26H148a4.341,4.341,0,0,1-.246-.848q-.068-.4-.109-.9a8.044,8.044,0,0,1-1.87,1.49,5.651,5.651,0,0,1-2.86.725,4.935,4.935,0,0,1-3.362-1.155,4.109,4.109,0,0,1-1.327-3.274,4.243,4.243,0,0,1,2.135-3.979A9.533,9.533,0,0,1,143.8,17.1Zm8.419-2.926V11.234h2.078V7.078h3.855v4.156h2.42V14.01h-2.42v7.875a1.774,1.774,0,0,0,.232,1.142,2.559,2.559,0,0,0,1.422.226q.178,0,.376-.007t.39-.021v2.912l-1.846.068q-2.762.1-3.773-.957a2.849,2.849,0,0,1-.656-2.064V14.01ZM172.9,10.7a6.306,6.306,0,0,1,2.5.479,4.373,4.373,0,0,1,1.845,1.464,3.9,3.9,0,0,1,.749,1.717,21.245,21.245,0,0,1,.136,2.88V26H174.15V16.925a4.019,4.019,0,0,0-.407-1.944,2.04,2.04,0,0,0-2.008-1.04,2.755,2.755,0,0,0-2.328,1.033,4.758,4.758,0,0,0-.794,2.95V26h-3.9V5.916h3.9v7.109a4.765,4.765,0,0,1,1.953-1.812A5.5,5.5,0,0,1,172.9,10.7Zm11.923-5.743a2.9,2.9,0,0,1,2.149.79,3.029,3.029,0,0,1,.809,2.177h-1.388a2.066,2.066,0,0,0-.467-1.284,1.415,1.415,0,0,0-1.1-.455,1.662,1.662,0,0,0-1.148.391,1.3,1.3,0,0,0-.439,1.021,1.37,1.37,0,0,0,.574.953,8.632,8.632,0,0,0,1.754,1.1,9.076,9.076,0,0,1,2.365,1.575,2.283,2.283,0,0,1,.69,1.615,2.8,2.8,0,0,1-1.061,2.273,3.607,3.607,0,0,1-.67.431l.144.152a2.432,2.432,0,0,1,.75,1.611,2.534,2.534,0,0,1-.849,1.986,3.211,3.211,0,0,1-2.221.758,3.064,3.064,0,0,1-2.229-.793,3,3,0,0,1-.841-2.2h1.388a2.014,2.014,0,0,0,.494,1.3,1.567,1.567,0,0,0,1.188.459,1.872,1.872,0,0,0,1.236-.391,1.263,1.263,0,0,0,.471-1.021,1.481,1.481,0,0,0-.594-.957,10.886,10.886,0,0,0-1.814-1.268,13.56,13.56,0,0,1-2.5-1.727A2.029,2.029,0,0,1,180.956,12a2.594,2.594,0,0,1,1.061-2.153,2.957,2.957,0,0,1,.686-.407l-.08-.1a2.379,2.379,0,0,1-.75-1.643,2.587,2.587,0,0,1,.813-1.986A3.01,3.01,0,0,1,184.824,4.958Zm2.432,8.2a1.473,1.473,0,0,0-.526-1.069,8.076,8.076,0,0,0-1.8-1.156,11.263,11.263,0,0,1-1.443-.853,2.615,2.615,0,0,0-.486.279,1.591,1.591,0,0,0-.678,1.332,1.25,1.25,0,0,0,.4.945,13.958,13.958,0,0,0,2.01,1.328,13.271,13.271,0,0,1,1.412.933,3.458,3.458,0,0,0,.439-.287A1.778,1.778,0,0,0,187.256,13.156Z" transform="translate(956 654)" fill="#ffe036"/>
    <g id="Group_569" data-name="Group 569" transform="translate(835.416 -107.724)">
      <g id="Rectangle_263" data-name="Rectangle 263" transform="translate(182.405 821.759)" fill="#ffe036" stroke="#707070" stroke-width="1">
        <rect width="124.211" height="104.66" stroke="none"/>
        <rect x="0.5" y="0.5" width="123.211" height="103.66" fill="none"/>
      </g>
      <path id="Path_406" data-name="Path 406" d="M92.511,20l92.511,82.49H0Z" transform="translate(337.021 1007.448) rotate(180)" fill="#ffe036"/>
    </g>
    <path id="Path_488" data-name="Path 488" d="M11.889,15a6.654,6.654,0,0,1,.654-2.783,7.869,7.869,0,0,1,2.813-3,20.625,20.625,0,0,0,2.49-1.973,2.915,2.915,0,0,0,.869-2.031,2.25,2.25,0,0,0-.5-1.494,1.754,1.754,0,0,0-1.426-.6,1.739,1.739,0,0,0-1.729.947,4.7,4.7,0,0,0-.312,1.738H12.045a6.834,6.834,0,0,1,.655-2.92A4.08,4.08,0,0,1,16.659.771a5.023,5.023,0,0,1,3.578,1.245,4.3,4.3,0,0,1,1.329,3.3,4.456,4.456,0,0,1-.939,2.793A9.349,9.349,0,0,1,18.6,9.912l-1.115.791q-1.047.742-1.433,1.074a3.148,3.148,0,0,0-.649.771h6.182V15ZM26.054,8.057a13.338,13.338,0,0,0,.4,3.735,1.612,1.612,0,0,0,1.641,1.294,1.59,1.59,0,0,0,1.626-1.294,13.82,13.82,0,0,0,.386-3.735,13.666,13.666,0,0,0-.386-3.789,1.576,1.576,0,0,0-1.626-1.23,1.6,1.6,0,0,0-1.641,1.23A13.189,13.189,0,0,0,26.054,8.057ZM28.095.742a4,4,0,0,1,3.794,1.9,11.019,11.019,0,0,1,1.089,5.41,10.96,10.96,0,0,1-1.089,5.4,4.006,4.006,0,0,1-3.794,1.895A4.006,4.006,0,0,1,24.3,13.457a10.96,10.96,0,0,1-1.089-5.4A11.019,11.019,0,0,1,24.3,2.646,4,4,0,0,1,28.095.742ZM38,6.094a1.55,1.55,0,0,0,1.553-1.553,1.553,1.553,0,1,0-3.105,0A1.55,1.55,0,0,0,38,6.094Zm3.633-1.553a3.508,3.508,0,0,1-1.06,2.568,3.637,3.637,0,0,1-5.142,0,3.5,3.5,0,0,1-1.064-2.568,3.5,3.5,0,0,1,1.064-2.568,3.631,3.631,0,0,1,5.137,0A3.5,3.5,0,0,1,41.634,4.541Zm7.412,7.109a1.55,1.55,0,1,0-.454,1.1A1.5,1.5,0,0,0,49.046,11.65Zm2.08,0a3.633,3.633,0,1,1-6.2-2.573,3.635,3.635,0,0,1,6.2,2.573ZM45.941.84h1.478L39.533,15.371H38.021Zm16.24,2.266V6.973h3.237a3.445,3.445,0,0,0,1.447-.234,1.62,1.62,0,0,0,.853-1.621,1.817,1.817,0,0,0-.826-1.758A2.982,2.982,0,0,0,65.5,3.105Zm3.946-2.5A6.271,6.271,0,0,1,68.4.977a3.553,3.553,0,0,1,1.347,1.006,4.478,4.478,0,0,1,.724,1.211,4.036,4.036,0,0,1,.267,1.514,4.313,4.313,0,0,1-.518,2.017,2.893,2.893,0,0,1-1.709,1.4A2.688,2.688,0,0,1,69.92,9.263a4.736,4.736,0,0,1,.415,2.251v.967a7.283,7.283,0,0,0,.079,1.338,1.2,1.2,0,0,0,.555.82V15H67.65q-.137-.479-.2-.771a7.088,7.088,0,0,1-.127-1.24l-.02-1.338a2.719,2.719,0,0,0-.476-1.836,2.425,2.425,0,0,0-1.714-.459H62.181V15H59.241V.605Zm10.7,2.5V6.973h3.237a3.445,3.445,0,0,0,1.447-.234,1.62,1.62,0,0,0,.853-1.621,1.817,1.817,0,0,0-.826-1.758,2.982,2.982,0,0,0-1.391-.254ZM80.77.605a6.271,6.271,0,0,1,2.271.371,3.553,3.553,0,0,1,1.347,1.006,4.477,4.477,0,0,1,.724,1.211,4.036,4.036,0,0,1,.267,1.514,4.313,4.313,0,0,1-.518,2.017,2.893,2.893,0,0,1-1.709,1.4,2.688,2.688,0,0,1,1.411,1.138,4.736,4.736,0,0,1,.415,2.251v.967a7.283,7.283,0,0,0,.079,1.338,1.2,1.2,0,0,0,.555.82V15h-3.32q-.137-.479-.2-.771a7.088,7.088,0,0,1-.127-1.24l-.02-1.338a2.719,2.719,0,0,0-.476-1.836,2.425,2.425,0,0,0-1.714-.459H76.824V15H73.885V.605Z" transform="translate(1031 740)" fill="#234b6f"/>
    <path id="Path_489" data-name="Path 489" d="M8.068,14V3.233H9.525V7.65h5.618V3.233H16.6V14H15.143V8.939H9.525V14H8.068Zm11.144,0V3.233h5.01a3.986,3.986,0,0,1,2.607.743,2.673,2.673,0,0,1,.894,2.179,2.759,2.759,0,0,1-.93,2.212,3.332,3.332,0,0,1-.505.352l.242.117a2.082,2.082,0,0,1,1.018,1.9L27.6,12.7a1.73,1.73,0,0,0,.125.7.9.9,0,0,0,.425.366v.234H26.362a3.122,3.122,0,0,1-.117-.688q-.058-.557-.088-1.238l-.033-.85a1.968,1.968,0,0,0-.491-1.432,2.179,2.179,0,0,0-1.508-.428H20.669V14H19.211Zm1.458-5.9h3.6a2.1,2.1,0,0,0,1.479-.443,1.852,1.852,0,0,0,.469-1.4,1.718,1.718,0,0,0-.494-1.362,2.342,2.342,0,0,0-1.564-.432H20.669Zm9.51,4.314h1.567V14H30.179Zm0-6.167h1.567V7.833H30.179Zm11.5,8.042a3.027,3.027,0,0,1-2.67-1.406,7.179,7.179,0,0,1-.941-4.006,7.2,7.2,0,0,1,.941-4.01,3.243,3.243,0,0,1,5.35,0,7.22,7.22,0,0,1,.938,4.01,7.2,7.2,0,0,1-.937,4.006A3.031,3.031,0,0,1,41.678,14.286Zm0-1.187a1.788,1.788,0,0,0,1.67-1.055A6.972,6.972,0,0,0,43.9,8.873,7,7,0,0,0,43.348,5.7a1.788,1.788,0,0,0-1.67-1.058A1.768,1.768,0,0,0,40.023,5.7a7.186,7.186,0,0,0-.557,3.175,7.161,7.161,0,0,0,.557,3.171A1.768,1.768,0,0,0,41.678,13.1Zm5.629-.688h1.567V14H47.307Zm9-3.992a3.486,3.486,0,0,1,.776.476A2.577,2.577,0,0,1,58.077,11a3.066,3.066,0,0,1-.989,2.38,4.218,4.218,0,0,1-5.211,0A3.072,3.072,0,0,1,50.892,11a2.6,2.6,0,0,1,.989-2.117,3.336,3.336,0,0,1,.762-.461,4.924,4.924,0,0,1-.505-.322,2.188,2.188,0,0,1-.886-1.816,2.6,2.6,0,0,1,.89-2.054,3.9,3.9,0,0,1,4.68,0,2.6,2.6,0,0,1,.89,2.054A2.182,2.182,0,0,1,56.817,8.1,2.827,2.827,0,0,1,56.312,8.419ZM54.48,7.87a1.924,1.924,0,0,0,1.318-.45,1.474,1.474,0,0,0,.513-1.161A1.485,1.485,0,0,0,55.8,5.094a2.141,2.141,0,0,0-2.637,0,1.485,1.485,0,0,0-.513,1.165,1.485,1.485,0,0,0,.513,1.165A1.934,1.934,0,0,0,54.48,7.87Zm0,1.143a2.211,2.211,0,0,0-1.578.575,1.935,1.935,0,0,0-.612,1.476,1.915,1.915,0,0,0,.612,1.465,2.471,2.471,0,0,0,3.16,0,1.91,1.91,0,0,0,.615-1.465,1.941,1.941,0,0,0-.615-1.479A2.233,2.233,0,0,0,54.48,9.012Zm8.5,5.273a3.027,3.027,0,0,1-2.67-1.406,7.179,7.179,0,0,1-.941-4.006,7.2,7.2,0,0,1,.941-4.01,3.243,3.243,0,0,1,5.35,0,7.22,7.22,0,0,1,.938,4.01,7.2,7.2,0,0,1-.937,4.006A3.031,3.031,0,0,1,62.98,14.286Zm0-1.187a1.788,1.788,0,0,0,1.67-1.055A6.972,6.972,0,0,0,65.2,8.873,7,7,0,0,0,64.65,5.7,1.788,1.788,0,0,0,62.98,4.64,1.768,1.768,0,0,0,61.325,5.7a7.186,7.186,0,0,0-.557,3.175,7.161,7.161,0,0,0,.557,3.171A1.768,1.768,0,0,0,62.98,13.1Zm9.66-3.054a10.2,10.2,0,0,1,.615-3.519A14.625,14.625,0,0,1,75.2,3h.9a16.907,16.907,0,0,0-1.564,3.574,12.488,12.488,0,0,0,0,6.958A16.753,16.753,0,0,0,76.1,17.1h-.9a14.6,14.6,0,0,1-1.948-3.53A10.229,10.229,0,0,1,72.64,10.045Zm8.016,4.241a3.2,3.2,0,0,1-2.23-.751,2.826,2.826,0,0,1-.89-2.069h1.274a1.893,1.893,0,0,0,.56,1.256,1.82,1.82,0,0,0,1.285.443,2,2,0,0,0,1.831-1.326,7.688,7.688,0,0,0,.608-2.6,3.023,3.023,0,0,1-2.439,1.208,3.077,3.077,0,0,1-2.362-.963,3.574,3.574,0,0,1-.9-2.538,3.4,3.4,0,0,1,.974-2.534,3.5,3.5,0,0,1,2.571-.959,3.1,3.1,0,0,1,2.618,1.2,5.548,5.548,0,0,1,.919,3.424,8.773,8.773,0,0,1-1,4.592A3.146,3.146,0,0,1,80.657,14.286Zm2.285-7.339a2.394,2.394,0,0,0-.579-1.663,2.054,2.054,0,0,0-2.988,0A2.394,2.394,0,0,0,78.8,6.947a2.408,2.408,0,0,0,.579,1.666,2.042,2.042,0,0,0,2.988,0A2.394,2.394,0,0,0,82.942,6.947Zm10.03,3.662a3.612,3.612,0,0,1-1.014,2.648,3.5,3.5,0,0,1-2.6,1.029,3.869,3.869,0,0,1-2.542-.791,3,3,0,0,1-1.069-2.183H87.12a1.972,1.972,0,0,0,.709,1.359,2.465,2.465,0,0,0,1.587.48,2,2,0,0,0,1.554-.667,2.456,2.456,0,0,0,.6-1.714,2.4,2.4,0,0,0-.63-1.747,2.27,2.27,0,0,0-1.707-.648,2.446,2.446,0,0,0-1.124.278,2.065,2.065,0,0,0-.824.71l-1.113-.073.762-5.625H92.4V4.947H87.924l-.457,2.886L87.51,7.8a3.193,3.193,0,0,1,1.84-.6A3.709,3.709,0,0,1,92,8.126,3.242,3.242,0,0,1,92.972,10.609ZM96.887,8.7a2.445,2.445,0,0,1-1.794-.758,2.542,2.542,0,0,1,0-3.615,2.5,2.5,0,0,1,3.593,0,2.533,2.533,0,0,1,0,3.615A2.457,2.457,0,0,1,96.887,8.7Zm0-4.08a1.433,1.433,0,0,0-1.058.45,1.5,1.5,0,0,0,0,2.128A1.507,1.507,0,0,0,98.4,6.134a1.463,1.463,0,0,0-.447-1.066A1.445,1.445,0,0,0,96.887,4.618Zm.066,9.631,6.119-10.8h.817l-6.119,10.8Zm6.995-.205a2.445,2.445,0,0,1-1.794-.758,2.542,2.542,0,0,1,0-3.615,2.5,2.5,0,0,1,3.593,0,2.533,2.533,0,0,1,0,3.615A2.457,2.457,0,0,1,103.947,14.044Zm0-4.08a1.433,1.433,0,0,0-1.058.45,1.5,1.5,0,0,0,0,2.128,1.507,1.507,0,0,0,2.567-1.062,1.463,1.463,0,0,0-.447-1.066A1.445,1.445,0,0,0,103.947,9.964ZM20.385,27.038a4.982,4.982,0,0,1-1.527,3.124,4.528,4.528,0,0,1-3.16,1.132,4.446,4.446,0,0,1-3.549-1.534,6.119,6.119,0,0,1-1.322-4.135A6,6,0,0,1,12.2,21.482a4.692,4.692,0,0,1,3.688-1.542,4.646,4.646,0,0,1,3,.938,3.866,3.866,0,0,1,1.406,2.585H18.884a2.567,2.567,0,0,0-.992-1.652,3.318,3.318,0,0,0-2.025-.582,3.14,3.14,0,0,0-2.578,1.19,4.959,4.959,0,0,0-.959,3.2,5.148,5.148,0,0,0,.89,3.259A3.1,3.1,0,0,0,15.8,30a2.929,2.929,0,0,0,2.08-.773,3.9,3.9,0,0,0,1.1-2.194ZM22.513,31V20.233H23.97V31H22.513Zm4.259-1.589h1.567V31H26.772Zm0-6.167h1.567v1.589H26.772Zm11.5,8.042a3.027,3.027,0,0,1-2.67-1.406,7.179,7.179,0,0,1-.941-4.006,7.2,7.2,0,0,1,.941-4.01,3.243,3.243,0,0,1,5.35,0,7.22,7.22,0,0,1,.938,4.01,7.2,7.2,0,0,1-.937,4.006A3.031,3.031,0,0,1,38.271,31.286Zm0-1.187a1.788,1.788,0,0,0,1.67-1.055,6.972,6.972,0,0,0,.549-3.171A7,7,0,0,0,39.94,22.7a1.788,1.788,0,0,0-1.67-1.058A1.768,1.768,0,0,0,36.615,22.7a7.186,7.186,0,0,0-.557,3.175,7.161,7.161,0,0,0,.557,3.171A1.768,1.768,0,0,0,38.271,30.1Zm5.629-.688h1.567V31H43.9ZM48.993,31a18.7,18.7,0,0,1,4.354-9.053H47.469V20.666h7.288v1.172a19.321,19.321,0,0,0-2.783,4.277A19.067,19.067,0,0,0,50.465,31Zm10.4,0V23.515H56.921V22.46a2.86,2.86,0,0,0,1.772-.469,2.9,2.9,0,0,0,1.018-1.538h1.077V31h-1.4Zm5.167-4.827h3.677v1.355H64.557Zm8.653,5.112a3.027,3.027,0,0,1-2.67-1.406,7.179,7.179,0,0,1-.941-4.006,7.2,7.2,0,0,1,.941-4.01,3.243,3.243,0,0,1,5.35,0,7.22,7.22,0,0,1,.938,4.01,7.2,7.2,0,0,1-.937,4.006A3.031,3.031,0,0,1,73.21,31.286Zm0-1.187a1.788,1.788,0,0,0,1.67-1.055,6.972,6.972,0,0,0,.549-3.171A7,7,0,0,0,74.88,22.7a1.788,1.788,0,0,0-1.67-1.058A1.768,1.768,0,0,0,71.555,22.7,7.186,7.186,0,0,0,71,25.873a7.161,7.161,0,0,0,.557,3.171A1.768,1.768,0,0,0,73.21,30.1Zm5.629-.688h1.567V31H78.838Zm9-3.992a3.486,3.486,0,0,1,.776.476A2.577,2.577,0,0,1,89.609,28a3.066,3.066,0,0,1-.989,2.38,4.218,4.218,0,0,1-5.211,0A3.072,3.072,0,0,1,82.424,28a2.6,2.6,0,0,1,.989-2.117,3.336,3.336,0,0,1,.762-.461,4.924,4.924,0,0,1-.505-.322,2.188,2.188,0,0,1-.886-1.816,2.6,2.6,0,0,1,.89-2.054,3.9,3.9,0,0,1,4.68,0,2.6,2.6,0,0,1,.89,2.054,2.182,2.182,0,0,1-.894,1.816A2.827,2.827,0,0,1,87.843,25.419Zm-1.831-.549a1.924,1.924,0,0,0,1.318-.45,1.575,1.575,0,0,0,0-2.325,2.141,2.141,0,0,0-2.637,0,1.579,1.579,0,0,0,0,2.329A1.934,1.934,0,0,0,86.012,24.87Zm0,1.143a2.211,2.211,0,0,0-1.578.575,1.935,1.935,0,0,0-.612,1.476,1.915,1.915,0,0,0,.612,1.465,2.471,2.471,0,0,0,3.16,0,1.91,1.91,0,0,0,.615-1.465,1.941,1.941,0,0,0-.615-1.479A2.233,2.233,0,0,0,86.012,26.012Zm8.221,5.273A3.2,3.2,0,0,1,92,30.535a2.826,2.826,0,0,1-.89-2.069h1.274a1.893,1.893,0,0,0,.56,1.256,1.82,1.82,0,0,0,1.285.443,2,2,0,0,0,1.831-1.326,7.688,7.688,0,0,0,.608-2.6,3.023,3.023,0,0,1-2.439,1.208,3.077,3.077,0,0,1-2.362-.963,3.574,3.574,0,0,1-.9-2.538,3.4,3.4,0,0,1,.974-2.534,3.5,3.5,0,0,1,2.571-.959,3.1,3.1,0,0,1,2.618,1.2,5.548,5.548,0,0,1,.919,3.424,8.773,8.773,0,0,1-1,4.592A3.146,3.146,0,0,1,94.234,31.286Zm2.285-7.339a2.394,2.394,0,0,0-.579-1.663,2.054,2.054,0,0,0-2.988,0,2.683,2.683,0,0,0,0,3.329,2.042,2.042,0,0,0,2.988,0A2.394,2.394,0,0,0,96.519,23.947Zm6.3,3.105a10.2,10.2,0,0,1-.615,3.519A14.625,14.625,0,0,1,100.25,34.1h-.9a16.907,16.907,0,0,0,1.564-3.574,12.488,12.488,0,0,0,0-6.958A16.753,16.753,0,0,0,99.35,20h.9a14.6,14.6,0,0,1,1.948,3.53A10.229,10.229,0,0,1,102.814,27.052ZM25.579,44.03a4.093,4.093,0,0,0,.066-1.611,1.446,1.446,0,0,0-1.6-1.3,2.426,2.426,0,0,0-2.168,1.37,6.385,6.385,0,0,0-.667,1.86,3.741,3.741,0,0,0-.051,1.545,1.445,1.445,0,0,0,1.611,1.216,2.371,2.371,0,0,0,1.7-.773A4.525,4.525,0,0,0,25.579,44.03Zm-4.746-3.838h1.282l-.22,1.04a4.276,4.276,0,0,1,1.04-.828,3.269,3.269,0,0,1,1.663-.439,2.337,2.337,0,0,1,2.043,1.022,3.688,3.688,0,0,1,.308,2.919,5.661,5.661,0,0,1-2.117,3.662,3.643,3.643,0,0,1-2.124.7,2.3,2.3,0,0,1-1.406-.388,2.441,2.441,0,0,1-.623-.754l-.85,4.006H18.511Zm6.559,5H34.98v1.106H27.392Zm0-3.032H34.98v1.106H27.392Zm12.491,6.13a3.027,3.027,0,0,1-2.67-1.406,7.179,7.179,0,0,1-.941-4.006,7.2,7.2,0,0,1,.941-4.01,3.243,3.243,0,0,1,5.35,0,7.22,7.22,0,0,1,.938,4.01,7.2,7.2,0,0,1-.937,4.006A3.031,3.031,0,0,1,39.883,48.286Zm0-1.187a1.788,1.788,0,0,0,1.67-1.055,6.972,6.972,0,0,0,.549-3.171,7,7,0,0,0-.549-3.175,1.788,1.788,0,0,0-1.67-1.058A1.768,1.768,0,0,0,38.228,39.7a7.186,7.186,0,0,0-.557,3.175,7.161,7.161,0,0,0,.557,3.171A1.768,1.768,0,0,0,39.883,47.1Zm5.629-.688h1.567V48H45.512Zm7.181,1.875a3.027,3.027,0,0,1-2.67-1.406,7.179,7.179,0,0,1-.941-4.006,7.2,7.2,0,0,1,.941-4.01,3.243,3.243,0,0,1,5.35,0,7.22,7.22,0,0,1,.938,4.01,7.2,7.2,0,0,1-.937,4.006A3.031,3.031,0,0,1,52.693,48.286Zm0-1.187a1.788,1.788,0,0,0,1.67-1.055,6.972,6.972,0,0,0,.549-3.171,7,7,0,0,0-.549-3.175,1.788,1.788,0,0,0-1.67-1.058A1.768,1.768,0,0,0,51.038,39.7a7.186,7.186,0,0,0-.557,3.175,7.161,7.161,0,0,0,.557,3.171A1.768,1.768,0,0,0,52.693,47.1Zm8.492,1.187a3.027,3.027,0,0,1-2.67-1.406,7.179,7.179,0,0,1-.941-4.006,7.2,7.2,0,0,1,.941-4.01,3.243,3.243,0,0,1,5.35,0,7.22,7.22,0,0,1,.938,4.01,7.2,7.2,0,0,1-.938,4.006A3.031,3.031,0,0,1,61.185,48.286Zm0-1.187a1.788,1.788,0,0,0,1.67-1.055,6.972,6.972,0,0,0,.549-3.171,7,7,0,0,0-.549-3.175,1.788,1.788,0,0,0-1.67-1.058A1.768,1.768,0,0,0,59.53,39.7a7.186,7.186,0,0,0-.557,3.175,7.161,7.161,0,0,0,.557,3.171A1.768,1.768,0,0,0,61.185,47.1Zm8.492,1.187a3.027,3.027,0,0,1-2.67-1.406,7.179,7.179,0,0,1-.941-4.006,7.2,7.2,0,0,1,.941-4.01,3.243,3.243,0,0,1,5.35,0,7.22,7.22,0,0,1,.938,4.01,7.2,7.2,0,0,1-.937,4.006A3.031,3.031,0,0,1,69.678,48.286Zm0-1.187a1.788,1.788,0,0,0,1.67-1.055,6.972,6.972,0,0,0,.549-3.171,7,7,0,0,0-.549-3.175,1.788,1.788,0,0,0-1.67-1.058A1.768,1.768,0,0,0,68.022,39.7a7.186,7.186,0,0,0-.557,3.175,7.161,7.161,0,0,0,.557,3.171A1.768,1.768,0,0,0,69.678,47.1Zm8.492,1.187a3.027,3.027,0,0,1-2.67-1.406,7.179,7.179,0,0,1-.941-4.006,7.2,7.2,0,0,1,.941-4.01,3.243,3.243,0,0,1,5.35,0,7.22,7.22,0,0,1,.938,4.01,7.2,7.2,0,0,1-.937,4.006A3.031,3.031,0,0,1,78.17,48.286Zm0-1.187a1.788,1.788,0,0,0,1.67-1.055,6.972,6.972,0,0,0,.549-3.171A7,7,0,0,0,79.84,39.7a1.788,1.788,0,0,0-1.67-1.058A1.768,1.768,0,0,0,76.515,39.7a7.186,7.186,0,0,0-.557,3.175,7.161,7.161,0,0,0,.557,3.171A1.768,1.768,0,0,0,78.17,47.1Zm9.349-1.626H82.868v-1.23l4.878-6.79h1.1v6.892h1.494v1.128H88.845V48H87.519Zm0-1.128V39.539l-3.362,4.7-.073.1ZM93.029,40a2.032,2.032,0,0,1-1.363-.453,1.614,1.614,0,0,1,0-2.373,2.008,2.008,0,0,1,1.365-.451h2.307v7.771h-.624V37.254H93.644v7.237h-.615Z" transform="translate(1023 778)" fill="#234b6f"/>
  </g>
</svg>
